<svg width="544" height="417" viewBox="0 0 544 417" fill="none" xmlns="http://www.w3.org/2000/svg">
<path d="M128.62 245.975C128.623 245.975 128.626 245.975 128.629 245.975C128.636 245.975 128.643 245.975 128.643 245.975L42.276 402.82C39.5759 407.729 43.1268 413.746 48.7489 413.746C48.7489 413.746 54.5704 413.746 61.3633 413.746C64.0844 413.746 66.9614 413.746 69.6824 413.746C76.4754 413.746 82.2969 413.746 82.2969 413.746C84.997 413.746 87.4752 412.27 88.7697 409.907L141.477 314.191C142.76 311.882 145.059 310.552 147.463 310.383C149.288 310.255 151.174 310.796 152.722 312.087L264.573 405.441C266.084 406.707 267.979 407.273 269.834 407.144C271.385 407.036 272.907 406.442 274.153 405.367L384.931 310.093C386.193 309.005 387.697 308.429 389.214 308.322C391.966 308.129 394.758 309.482 396.213 312.123L450.585 409.981C451.879 412.343 454.357 413.783 457.058 413.783C457.058 413.783 462.892 413.783 469.7 413.783C472.427 413.783 475.31 413.783 478.037 413.783C484.845 413.783 490.68 413.783 490.68 413.783C496.302 413.783 499.889 407.729 497.152 402.82L428.91 280.009C427.208 276.945 427.911 273.106 430.537 270.854L540.613 176.172C543.276 173.883 543.942 170.044 542.241 166.98L485.908 66.6126C484.432 63.9998 481.655 62.6708 478.916 62.8619C477.398 62.9678 475.893 63.5402 474.627 64.6193L369.507 154.836C368.246 155.924 366.741 156.5 365.224 156.607C362.473 156.8 359.681 155.447 358.226 152.805L275.632 4.11829C274.129 1.41341 271.334 0.155275 268.63 0.34388C266.278 0.507897 263.994 1.76603 262.687 4.11829L156.236 195.957C154.534 199.058 155.237 202.897 157.937 205.185L264.499 294.959C266.021 296.235 267.932 296.811 269.8 296.68C271.337 296.573 272.843 295.988 274.079 294.922L462.495 133.241C463.76 132.163 465.265 131.59 466.781 131.484C469.521 131.292 472.3 132.621 473.776 135.235L486.056 157.087C487.757 160.151 487.092 163.99 484.429 166.279L273.709 347.523C272.464 348.598 270.943 349.192 269.394 349.3C267.538 349.43 265.641 348.865 264.129 347.597L139.85 243.871C138.303 242.581 136.418 242.04 134.595 242.167C132.189 242.335 129.889 243.665 128.606 245.975C128.606 245.975 128.612 245.975 128.62 245.975ZM269.521 238.74C267.66 238.871 265.756 238.296 264.24 237.005L214.195 194.85C211.495 192.561 210.793 188.722 212.494 185.621L262.723 95.1098C264.03 92.7585 266.313 91.5004 268.664 91.3355C271.369 91.1459 274.165 92.4039 275.669 95.1098L325.529 184.846C327.23 187.91 326.528 191.749 323.864 194.038L273.82 236.968C272.579 238.039 271.064 238.632 269.521 238.74Z" fill="#0E48D0"/>
<path d="M7.39507 416.637C1.77292 416.637 -1.77791 410.621 0.922203 405.711L42.2761 402.819C39.576 407.729 43.1268 413.746 48.7489 413.746L7.39507 416.637Z" fill="url(#paint0_linear_371_6949)"/>
<path d="M20.0095 416.638H7.39505L48.7489 413.746H61.3633L20.0095 416.638Z" fill="url(#paint1_linear_371_6949)"/>
<path d="M28.3286 416.638H20.0095L61.3634 413.746H69.6825L28.3286 416.638Z" fill="url(#paint2_linear_371_6949)"/>
<path d="M40.943 416.638H28.3286L69.6825 413.746H82.2969L40.943 416.638Z" fill="url(#paint3_linear_371_6949)"/>
<path d="M41.9707 416.566C41.6331 416.613 41.2899 416.638 40.943 416.638L41.9707 416.566C44.2603 416.244 46.2876 414.858 47.4159 412.799L88.7697 409.907C87.4752 412.269 84.997 413.746 82.2969 413.746L41.9707 416.566Z" fill="url(#paint4_linear_371_6949)"/>
<path d="M0.922195 405.711L87.2888 248.866L128.643 245.975L42.2761 402.82L0.922195 405.711Z" fill="url(#paint5_linear_371_6949)"/>
<path d="M100.124 317.082L47.4159 412.799L88.7698 409.907L141.477 314.19L100.124 317.082Z" fill="url(#paint6_linear_371_6949)"/>
<path d="M87.2657 248.866H87.2518L128.606 245.975H128.62L87.2657 248.866Z" fill="url(#paint7_linear_371_6949)"/>
<path d="M87.2749 248.866H87.2657L128.62 245.975H128.629L87.2749 248.866Z" fill="url(#paint8_linear_371_6949)"/>
<path d="M87.2888 248.866H87.2749L128.629 245.975H128.643L87.2888 248.866Z" fill="url(#paint9_linear_371_6949)"/>
<path d="M87.2518 248.866C88.535 246.557 90.8353 245.227 93.2408 245.059L134.592 242.167C132.187 242.336 129.888 243.666 128.606 245.975L87.2518 248.866Z" fill="url(#paint10_linear_371_6949)"/>
<path d="M93.2408 245.059C95.0646 244.932 96.9489 245.473 98.4961 246.762L139.85 243.871C138.303 242.581 136.418 242.04 134.595 242.167L93.2408 245.059Z" fill="url(#paint11_linear_371_6949)"/>
<path d="M106.11 313.275C103.705 313.444 101.406 314.774 100.124 317.082L141.477 314.191C142.76 311.882 145.059 310.552 147.464 310.383L106.11 313.275Z" fill="url(#paint12_linear_371_6949)"/>
<path d="M111.368 314.978C109.821 313.689 107.936 313.148 106.113 313.275L147.464 310.383C149.288 310.255 151.174 310.796 152.722 312.086L111.368 314.978Z" fill="url(#paint13_linear_371_6949)"/>
<path d="M116.583 208.077C113.883 205.788 113.18 201.949 114.882 198.849L156.236 195.957C154.534 199.058 155.237 202.897 157.937 205.185L116.583 208.077Z" fill="url(#paint14_linear_371_6949)"/>
<path d="M98.4961 246.762L222.775 350.489L264.129 347.597L139.85 243.87L98.4961 246.762Z" fill="url(#paint15_linear_371_6949)"/>
<path d="M223.219 408.332L111.368 314.978L152.722 312.086L264.573 405.44L223.219 408.332Z" fill="url(#paint16_linear_371_6949)"/>
<path d="M223.145 297.85L116.583 208.077L157.937 205.185L264.499 294.959L223.145 297.85Z" fill="url(#paint17_linear_371_6949)"/>
<path d="M171.14 188.513C169.439 191.614 170.141 195.453 172.842 197.741L214.195 194.85C211.495 192.561 210.793 188.722 212.494 185.621L171.14 188.513Z" fill="url(#paint18_linear_371_6949)"/>
<path d="M114.882 198.849L221.333 7.00979L262.687 4.11804L156.236 195.957L114.882 198.849Z" fill="url(#paint19_linear_371_6949)"/>
<path d="M172.842 197.741L222.886 239.896L264.24 237.005L214.195 194.85L172.842 197.741Z" fill="url(#paint20_linear_371_6949)"/>
<path d="M221.37 98.0015L171.14 188.513L212.494 185.621L262.724 95.1097L221.37 98.0015Z" fill="url(#paint21_linear_371_6949)"/>
<path d="M228.48 410.035C226.625 410.165 224.73 409.599 223.219 408.332L264.573 405.44C266.084 406.707 267.979 407.273 269.834 407.144L228.48 410.035Z" fill="url(#paint22_linear_371_6949)"/>
<path d="M222.775 350.489C224.287 351.756 226.184 352.322 228.04 352.192L269.391 349.3C267.536 349.43 265.64 348.864 264.129 347.597L222.775 350.489Z" fill="url(#paint23_linear_371_6949)"/>
<path d="M232.799 408.258C231.554 409.333 230.033 409.927 228.484 410.035L269.834 407.144C271.385 407.036 272.907 406.442 274.153 405.367L232.799 408.258Z" fill="url(#paint24_linear_371_6949)"/>
<path d="M228.446 299.572C226.579 299.702 224.667 299.126 223.145 297.85L264.499 294.959C266.021 296.235 267.932 296.81 269.8 296.68L228.446 299.572Z" fill="url(#paint25_linear_371_6949)"/>
<path d="M228.04 352.192C229.589 352.083 231.11 351.49 232.355 350.415L273.709 347.523C272.464 348.598 270.943 349.192 269.394 349.3L228.04 352.192Z" fill="url(#paint26_linear_371_6949)"/>
<path d="M222.886 239.896C224.403 241.188 226.306 241.762 228.167 241.632L269.518 238.74C267.658 238.87 265.756 238.295 264.24 237.005L222.886 239.896Z" fill="url(#paint27_linear_371_6949)"/>
<path d="M232.725 297.813C231.49 298.879 229.985 299.464 228.45 299.572L269.8 296.68C271.337 296.573 272.843 295.988 274.079 294.922L232.725 297.813Z" fill="url(#paint28_linear_371_6949)"/>
<path d="M228.167 241.632C229.711 241.524 231.225 240.931 232.466 239.86L273.82 236.968C272.579 238.039 271.065 238.632 269.521 238.74L228.167 241.632Z" fill="url(#paint29_linear_371_6949)"/>
<path d="M227.31 94.2272C224.959 94.392 222.677 95.6501 221.37 98.0014L262.723 95.1097C264.03 92.7584 266.313 91.5003 268.664 91.3354L227.31 94.2272Z" fill="url(#paint30_linear_371_6949)"/>
<path d="M221.333 7.01002C222.64 4.65777 224.924 3.39963 227.276 3.23562L268.627 0.344071C266.276 0.508904 263.994 1.76697 262.687 4.11828L221.333 7.01002Z" fill="url(#paint31_linear_371_6949)"/>
<path d="M234.315 98.0015C232.812 95.2966 230.017 94.0385 227.313 94.2271L268.664 91.3355C271.369 91.1458 274.165 92.4039 275.669 95.1097L234.315 98.0015Z" fill="url(#paint32_linear_371_6949)"/>
<path d="M227.276 3.23562C229.98 3.04702 232.775 4.30516 234.278 7.01003L275.632 4.11829C274.129 1.41341 271.334 0.155275 268.63 0.34388L227.276 3.23562Z" fill="url(#paint33_linear_371_6949)"/>
<path d="M232.466 239.859L282.511 196.929L323.864 194.037L273.82 236.968L232.466 239.859Z" fill="url(#paint34_linear_371_6949)"/>
<path d="M284.175 187.738L234.315 98.0015L275.669 95.1097L325.529 184.846L284.175 187.738Z" fill="url(#paint35_linear_371_6949)"/>
<path d="M343.577 312.985L232.799 408.258L274.153 405.366L384.931 310.093L343.577 312.985Z" fill="url(#paint36_linear_371_6949)"/>
<path d="M234.278 7.00979L316.872 155.697L358.226 152.805L275.632 4.11804L234.278 7.00979Z" fill="url(#paint37_linear_371_6949)"/>
<path d="M282.511 196.929C285.174 194.641 285.877 190.802 284.175 187.738L325.529 184.846C327.23 187.91 326.528 191.749 323.864 194.038L282.511 196.929Z" fill="url(#paint38_linear_371_6949)"/>
<path d="M316.872 155.697C318.327 158.339 321.119 159.691 323.871 159.498L365.221 156.607C362.47 156.799 359.68 155.446 358.226 152.805L316.872 155.697Z" fill="url(#paint39_linear_371_6949)"/>
<path d="M421.141 136.133L232.725 297.813L274.079 294.922L462.495 133.241L421.141 136.133Z" fill="url(#paint40_linear_371_6949)"/>
<path d="M323.871 159.498C325.387 159.392 326.892 158.816 328.154 157.727L369.507 154.836C368.246 155.924 366.741 156.5 365.224 156.607L323.871 159.498Z" fill="url(#paint41_linear_371_6949)"/>
<path d="M232.355 350.415L443.075 169.17L484.429 166.279L273.709 347.523L232.355 350.415Z" fill="url(#paint42_linear_371_6949)"/>
<path d="M347.86 311.214C346.344 311.32 344.839 311.896 343.577 312.985L384.931 310.093C386.193 309.004 387.697 308.428 389.214 308.322L347.86 311.214Z" fill="url(#paint43_linear_371_6949)"/>
<path d="M354.859 315.015C353.405 312.374 350.614 311.022 347.864 311.213L389.214 308.322C391.966 308.129 394.758 309.482 396.213 312.123L354.859 315.015Z" fill="url(#paint44_linear_371_6949)"/>
<path d="M409.231 412.872L354.859 315.015L396.213 312.123L450.585 409.981L409.231 412.872Z" fill="url(#paint45_linear_371_6949)"/>
<path d="M389.184 273.746C386.557 275.998 385.855 279.837 387.556 282.9L428.91 280.009C427.208 276.945 427.911 273.106 430.537 270.854L389.184 273.746Z" fill="url(#paint46_linear_371_6949)"/>
<path d="M328.154 157.727L433.273 67.511L474.627 64.6193L369.507 154.836L328.154 157.727Z" fill="url(#paint47_linear_371_6949)"/>
<path d="M415.704 416.675C413.004 416.675 410.525 415.235 409.231 412.872L450.585 409.981C451.879 412.343 454.357 413.783 457.058 413.783L415.704 416.675Z" fill="url(#paint48_linear_371_6949)"/>
<path d="M428.346 416.675H415.704L457.058 413.783H469.7L428.346 416.675Z" fill="url(#paint49_linear_371_6949)"/>
<path d="M387.556 282.901L455.798 405.711L497.152 402.82L428.91 280.009L387.556 282.901Z" fill="url(#paint50_linear_371_6949)"/>
<path d="M436.683 416.675H428.346L469.7 413.783H478.037L436.683 416.675Z" fill="url(#paint51_linear_371_6949)"/>
<path d="M425.427 134.376C423.911 134.482 422.406 135.054 421.141 136.133L462.495 133.241C463.76 132.163 465.265 131.59 466.781 131.484L425.427 134.376Z" fill="url(#paint52_linear_371_6949)"/>
<path d="M449.326 416.675H436.683L478.037 413.783H490.68L449.326 416.675Z" fill="url(#paint53_linear_371_6949)"/>
<path d="M432.422 138.126C430.947 135.513 428.169 134.184 425.43 134.375L466.781 131.484C469.521 131.292 472.3 132.621 473.776 135.234L432.422 138.126Z" fill="url(#paint54_linear_371_6949)"/>
<path d="M450.395 416.6C450.048 416.649 449.691 416.674 449.326 416.674L450.395 416.6C455.388 415.892 458.358 410.301 455.799 405.711L497.152 402.819C499.889 407.729 496.302 413.783 490.68 413.783L450.395 416.6Z" fill="url(#paint55_linear_371_6949)"/>
<path d="M444.702 159.979L432.422 138.126L473.776 135.234L486.056 157.087L444.702 159.979Z" fill="url(#paint56_linear_371_6949)"/>
<path d="M499.259 179.063L389.184 273.746L430.537 270.854L540.613 176.171L499.259 179.063Z" fill="url(#paint57_linear_371_6949)"/>
<path d="M433.273 67.5108C434.539 66.4317 436.045 65.8593 437.562 65.7534L478.913 62.8619C477.397 62.9682 475.892 63.5406 474.627 64.6191L433.273 67.5108Z" fill="url(#paint58_linear_371_6949)"/>
<path d="M443.075 169.17C445.738 166.882 446.404 163.043 444.702 159.979L486.056 157.087C487.757 160.151 487.092 163.99 484.429 166.279L443.075 169.17Z" fill="url(#paint59_linear_371_6949)"/>
<path d="M437.562 65.7537C440.301 65.5626 443.079 66.8916 444.554 69.5044L485.908 66.6127C484.432 63.9998 481.655 62.6709 478.916 62.8619L437.562 65.7537Z" fill="url(#paint60_linear_371_6949)"/>
<path d="M444.554 69.5043L500.887 169.872L542.24 166.98L485.908 66.6125L444.554 69.5043Z" fill="url(#paint61_linear_371_6949)"/>
<path d="M500.887 169.872C502.588 172.936 501.922 176.775 499.259 179.063L540.613 176.171C543.276 173.883 543.942 170.044 542.24 166.98L500.887 169.872Z" fill="url(#paint62_linear_371_6949)"/>
<path d="M87.2888 248.866L0.922203 405.711C-1.77791 410.621 1.77292 416.638 7.39507 416.638H40.943C43.6431 416.638 46.1213 415.161 47.4159 412.799L100.124 317.082C102.38 313.022 107.78 311.988 111.368 314.978L223.219 408.332C225.993 410.658 230.062 410.621 232.799 408.258L343.577 312.985C347.128 309.921 352.602 310.918 354.859 315.015L409.231 412.872C410.525 415.235 413.004 416.675 415.704 416.675H449.326C454.948 416.675 458.536 410.621 455.799 405.711L387.556 282.9C385.855 279.837 386.557 275.998 389.183 273.746L499.259 179.063C501.922 176.775 502.588 172.936 500.887 169.872L444.554 69.5042C442.261 65.4438 436.824 64.484 433.273 67.5109L328.154 157.727C324.603 160.791 319.128 159.794 316.872 155.697L234.278 7.00989C231.467 1.95276 224.144 1.95276 221.333 7.00989L114.882 198.849C113.18 201.949 113.883 205.788 116.583 208.077L223.145 297.85C225.919 300.176 229.988 300.176 232.725 297.813L421.141 136.133C424.692 133.106 430.129 134.066 432.422 138.126L444.702 159.979C446.404 163.043 445.738 166.882 443.075 169.17L232.355 350.415C229.618 352.777 225.549 352.814 222.775 350.489L98.4961 246.762C94.9083 243.772 89.508 244.806 87.2518 248.866H87.2888ZM222.886 239.896L172.842 197.741C170.142 195.453 169.439 191.614 171.14 188.513L221.37 98.0014C224.181 92.9442 231.504 92.9442 234.315 98.0014L284.175 187.738C285.876 190.802 285.174 194.641 282.511 196.929L232.466 239.859C229.729 242.222 225.66 242.259 222.886 239.896Z" fill="url(#paint63_linear_371_6949)"/>
<defs>
<linearGradient id="paint0_linear_371_6949" x1="-24.1094" y1="407.461" x2="-23.3176" y2="418.785" gradientUnits="userSpaceOnUse">
<stop stop-color="#5E8CF9"/>
<stop offset="1" stop-color="#1050E4"/>
</linearGradient>
<linearGradient id="paint1_linear_371_6949" x1="-19.3221" y1="418.506" x2="-19.2607" y2="419.384" gradientUnits="userSpaceOnUse">
<stop stop-color="#1050E4"/>
<stop offset="1" stop-color="#1050E4"/>
</linearGradient>
<linearGradient id="paint2_linear_371_6949" x1="-4.56525" y1="418.356" x2="-4.52477" y2="418.935" gradientUnits="userSpaceOnUse">
<stop stop-color="#1050E4"/>
<stop offset="1" stop-color="#1050E4"/>
</linearGradient>
<linearGradient id="paint3_linear_371_6949" x1="1.61143" y1="418.506" x2="1.67282" y2="419.384" gradientUnits="userSpaceOnUse">
<stop stop-color="#1050E4"/>
<stop offset="1" stop-color="#1050E4"/>
</linearGradient>
<linearGradient id="paint4_linear_371_6949" x1="17.3206" y1="414.903" x2="17.5563" y2="418.273" gradientUnits="userSpaceOnUse">
<stop stop-color="#5E8CF9"/>
<stop offset="1" stop-color="#1050E4"/>
</linearGradient>
<linearGradient id="paint5_linear_371_6949" x1="-62.161" y1="259.317" x2="-51.6669" y2="409.389" gradientUnits="userSpaceOnUse">
<stop stop-color="#5E8CF9"/>
<stop offset="1" stop-color="#5E8CF9"/>
</linearGradient>
<linearGradient id="paint6_linear_371_6949" x1="0.957447" y1="324.017" x2="7.36155" y2="415.599" gradientUnits="userSpaceOnUse">
<stop stop-color="#5E8CF9"/>
<stop offset="1" stop-color="#5E8CF9"/>
</linearGradient>
<linearGradient id="paint7_linear_371_6949" x1="66.8195" y1="250.295" x2="66.8196" y2="250.296" gradientUnits="userSpaceOnUse">
<stop stop-color="#1050E4"/>
<stop offset="1" stop-color="#1050E4"/>
</linearGradient>
<linearGradient id="paint8_linear_371_6949" x1="66.8358" y1="250.295" x2="66.8358" y2="250.296" gradientUnits="userSpaceOnUse">
<stop stop-color="#1050E4"/>
<stop offset="1" stop-color="#1050E4"/>
</linearGradient>
<linearGradient id="paint9_linear_371_6949" x1="66.8426" y1="250.295" x2="66.8427" y2="250.296" gradientUnits="userSpaceOnUse">
<stop stop-color="#1050E4"/>
<stop offset="1" stop-color="#1050E4"/>
</linearGradient>
<linearGradient id="paint10_linear_371_6949" x1="63.8684" y1="247.113" x2="64.1042" y2="250.485" gradientUnits="userSpaceOnUse">
<stop stop-color="#1255F0"/>
<stop offset="0.5" stop-color="#628FF9"/>
<stop offset="1" stop-color="#5F8DF9"/>
</linearGradient>
<linearGradient id="paint11_linear_371_6949" x1="70.1955" y1="246.67" x2="70.3396" y2="248.731" gradientUnits="userSpaceOnUse">
<stop stop-color="#1255F0"/>
<stop offset="0.5" stop-color="#093DB4"/>
<stop offset="1" stop-color="#03226A"/>
</linearGradient>
<linearGradient id="paint12_linear_371_6949" x1="76.7416" y1="315.329" x2="76.9774" y2="318.701" gradientUnits="userSpaceOnUse">
<stop stop-color="#1255F0"/>
<stop offset="0.5" stop-color="#628FF9"/>
<stop offset="1" stop-color="#5F8DF9"/>
</linearGradient>
<linearGradient id="paint13_linear_371_6949" x1="83.0629" y1="314.887" x2="83.207" y2="316.947" gradientUnits="userSpaceOnUse">
<stop stop-color="#1255F0"/>
<stop offset="0.5" stop-color="#093DB4"/>
<stop offset="1" stop-color="#03226A"/>
</linearGradient>
<linearGradient id="paint14_linear_371_6949" x1="92.2304" y1="200.433" x2="92.8808" y2="209.735" gradientUnits="userSpaceOnUse">
<stop stop-color="#5E8CF9"/>
<stop offset="0.5" stop-color="#0B43C5"/>
<stop offset="1" stop-color="#032168"/>
</linearGradient>
<linearGradient id="paint15_linear_371_6949" x1="16.0826" y1="252.525" x2="23.9053" y2="364.395" gradientUnits="userSpaceOnUse">
<stop stop-color="#032269"/>
<stop offset="1" stop-color="#032269"/>
</linearGradient>
<linearGradient id="paint16_linear_371_6949" x1="35.1532" y1="320.308" x2="42.1936" y2="420.991" gradientUnits="userSpaceOnUse">
<stop stop-color="#032269"/>
<stop offset="1" stop-color="#032269"/>
</linearGradient>
<linearGradient id="paint17_linear_371_6949" x1="43.0066" y1="213.222" x2="49.7722" y2="309.974" gradientUnits="userSpaceOnUse">
<stop stop-color="#032169"/>
<stop offset="1" stop-color="#032169"/>
</linearGradient>
<linearGradient id="paint18_linear_371_6949" x1="148.489" y1="190.097" x2="149.139" y2="199.399" gradientUnits="userSpaceOnUse">
<stop stop-color="#5E8CF9"/>
<stop offset="0.5" stop-color="#0B43C5"/>
<stop offset="1" stop-color="#032168"/>
</linearGradient>
<linearGradient id="paint19_linear_371_6949" x1="41.8785" y1="19.5584" x2="54.7099" y2="203.056" gradientUnits="userSpaceOnUse">
<stop stop-color="#5E8DF9"/>
<stop offset="1" stop-color="#5E8DF9"/>
</linearGradient>
<linearGradient id="paint20_linear_371_6949" x1="127.455" y1="200.915" x2="130.632" y2="246.347" gradientUnits="userSpaceOnUse">
<stop stop-color="#032169"/>
<stop offset="1" stop-color="#032169"/>
</linearGradient>
<linearGradient id="paint21_linear_371_6949" x1="125.906" y1="104.677" x2="131.96" y2="191.253" gradientUnits="userSpaceOnUse">
<stop stop-color="#5E8DF9"/>
<stop offset="1" stop-color="#5E8DF9"/>
</linearGradient>
<linearGradient id="paint22_linear_371_6949" x1="200.169" y1="409.944" x2="200.313" y2="412.005" gradientUnits="userSpaceOnUse">
<stop stop-color="#032169"/>
<stop offset="0.5" stop-color="#093CB2"/>
<stop offset="1" stop-color="#1255F0"/>
</linearGradient>
<linearGradient id="paint23_linear_371_6949" x1="199.724" y1="352.101" x2="199.868" y2="354.162" gradientUnits="userSpaceOnUse">
<stop stop-color="#032169"/>
<stop offset="0.5" stop-color="#093CB2"/>
<stop offset="1" stop-color="#1255F0"/>
</linearGradient>
<linearGradient id="paint24_linear_371_6949" x1="205.922" y1="410.138" x2="206.025" y2="411.606" gradientUnits="userSpaceOnUse">
<stop stop-color="#84A8FC"/>
<stop offset="0.5" stop-color="#477BF7"/>
<stop offset="1" stop-color="#1255F0"/>
</linearGradient>
<linearGradient id="paint25_linear_371_6949" x1="200.076" y1="299.464" x2="200.221" y2="301.546" gradientUnits="userSpaceOnUse">
<stop stop-color="#032169"/>
<stop offset="0.5" stop-color="#093CB2"/>
<stop offset="1" stop-color="#1255F0"/>
</linearGradient>
<linearGradient id="paint26_linear_371_6949" x1="205.483" y1="352.294" x2="205.586" y2="353.762" gradientUnits="userSpaceOnUse">
<stop stop-color="#84A8FC"/>
<stop offset="0.5" stop-color="#477BF7"/>
<stop offset="1" stop-color="#1255F0"/>
</linearGradient>
<linearGradient id="paint27_linear_371_6949" x1="199.827" y1="241.509" x2="199.973" y2="243.603" gradientUnits="userSpaceOnUse">
<stop stop-color="#032168"/>
<stop offset="0.5" stop-color="#093CB2"/>
<stop offset="1" stop-color="#1255F0"/>
</linearGradient>
<linearGradient id="paint28_linear_371_6949" x1="205.908" y1="299.689" x2="206.009" y2="301.141" gradientUnits="userSpaceOnUse">
<stop stop-color="#84A8FC"/>
<stop offset="0.5" stop-color="#467BF7"/>
<stop offset="1" stop-color="#1255F0"/>
</linearGradient>
<linearGradient id="paint29_linear_371_6949" x1="205.619" y1="241.737" x2="205.721" y2="243.201" gradientUnits="userSpaceOnUse">
<stop stop-color="#84A8FC"/>
<stop offset="0.5" stop-color="#477CF7"/>
<stop offset="1" stop-color="#1255F0"/>
</linearGradient>
<linearGradient id="paint30_linear_371_6949" x1="198.01" y1="96.276" x2="198.244" y2="99.6185" gradientUnits="userSpaceOnUse">
<stop stop-color="#1255F0"/>
<stop offset="0.5" stop-color="#5E8CF9"/>
<stop offset="1" stop-color="#5F8DF9"/>
</linearGradient>
<linearGradient id="paint31_linear_371_6949" x1="197.972" y1="5.28475" x2="198.206" y2="8.62723" gradientUnits="userSpaceOnUse">
<stop stop-color="#1255F0"/>
<stop offset="0.5" stop-color="#5E8CF9"/>
<stop offset="1" stop-color="#5F8DF9"/>
</linearGradient>
<linearGradient id="paint32_linear_371_6949" x1="203.392" y1="95.8998" x2="203.689" y2="100.143" gradientUnits="userSpaceOnUse">
<stop stop-color="#1255F0"/>
<stop offset="0.5" stop-color="#07339B"/>
<stop offset="1" stop-color="#052E8C"/>
</linearGradient>
<linearGradient id="paint33_linear_371_6949" x1="203.359" y1="4.90805" x2="203.656" y2="9.15137" gradientUnits="userSpaceOnUse">
<stop stop-color="#1255F0"/>
<stop offset="0.5" stop-color="#07339B"/>
<stop offset="1" stop-color="#052E8C"/>
</linearGradient>
<linearGradient id="paint34_linear_371_6949" x1="187.323" y1="203.585" x2="190.067" y2="242.824" gradientUnits="userSpaceOnUse">
<stop stop-color="#83A7FC"/>
<stop offset="1" stop-color="#83A7FC"/>
</linearGradient>
<linearGradient id="paint35_linear_371_6949" x1="189.021" y1="101.169" x2="195.508" y2="193.938" gradientUnits="userSpaceOnUse">
<stop stop-color="#052E8C"/>
<stop offset="1" stop-color="#052E8C"/>
</linearGradient>
<linearGradient id="paint36_linear_371_6949" x1="157.658" y1="325.985" x2="163.749" y2="413.087" gradientUnits="userSpaceOnUse">
<stop stop-color="#83A8FC"/>
<stop offset="1" stop-color="#83A8FC"/>
</linearGradient>
<linearGradient id="paint37_linear_371_6949" x1="172.657" y1="11.3188" x2="183.405" y2="165.03" gradientUnits="userSpaceOnUse">
<stop stop-color="#052E8C"/>
<stop offset="1" stop-color="#052E8C"/>
</linearGradient>
<linearGradient id="paint38_linear_371_6949" x1="260.802" y1="189.372" x2="261.434" y2="198.403" gradientUnits="userSpaceOnUse">
<stop stop-color="#052E8C"/>
<stop offset="0.5" stop-color="#2563F2"/>
<stop offset="1" stop-color="#83A8FC"/>
</linearGradient>
<linearGradient id="paint39_linear_371_6949" x1="292.956" y1="157.369" x2="293.255" y2="161.639" gradientUnits="userSpaceOnUse">
<stop stop-color="#052E8C"/>
<stop offset="0.5" stop-color="#063196"/>
<stop offset="1" stop-color="#1255F0"/>
</linearGradient>
<linearGradient id="paint40_linear_371_6949" x1="119.238" y1="157.244" x2="129.572" y2="305.027" gradientUnits="userSpaceOnUse">
<stop stop-color="#83A7FC"/>
<stop offset="1" stop-color="#83A7FC"/>
</linearGradient>
<linearGradient id="paint41_linear_371_6949" x1="301.33" y1="159.603" x2="301.432" y2="161.067" gradientUnits="userSpaceOnUse">
<stop stop-color="#84A8FC"/>
<stop offset="0.5" stop-color="#457BF6"/>
<stop offset="1" stop-color="#1255F0"/>
</linearGradient>
<linearGradient id="paint42_linear_371_6949" x1="107.852" y1="192.611" x2="119.439" y2="358.311" gradientUnits="userSpaceOnUse">
<stop stop-color="#83A8FC"/>
<stop offset="1" stop-color="#83A8FC"/>
</linearGradient>
<linearGradient id="paint43_linear_371_6949" x1="321.037" y1="313.089" x2="321.139" y2="314.554" gradientUnits="userSpaceOnUse">
<stop stop-color="#1255F0"/>
<stop offset="0.5" stop-color="#457BF6"/>
<stop offset="1" stop-color="#84A8FC"/>
</linearGradient>
<linearGradient id="paint44_linear_371_6949" x1="323.946" y1="312.886" x2="324.244" y2="317.156" gradientUnits="userSpaceOnUse">
<stop stop-color="#1255F0"/>
<stop offset="0.5" stop-color="#063196"/>
<stop offset="1" stop-color="#052E8C"/>
</linearGradient>
<linearGradient id="paint45_linear_371_6949" x1="307.314" y1="318.34" x2="314.388" y2="419.504" gradientUnits="userSpaceOnUse">
<stop stop-color="#052E8C"/>
<stop offset="1" stop-color="#052E8C"/>
</linearGradient>
<linearGradient id="paint46_linear_371_6949" x1="364.944" y1="275.441" x2="365.573" y2="284.438" gradientUnits="userSpaceOnUse">
<stop stop-color="#83A7FC"/>
<stop offset="0.5" stop-color="#2563F2"/>
<stop offset="1" stop-color="#052E8C"/>
</linearGradient>
<linearGradient id="paint47_linear_371_6949" x1="255.808" y1="79.9206" x2="261.574" y2="162.383" gradientUnits="userSpaceOnUse">
<stop stop-color="#83A7FC"/>
<stop offset="1" stop-color="#83A7FC"/>
</linearGradient>
<linearGradient id="paint48_linear_371_6949" x1="385.577" y1="414.526" x2="385.873" y2="418.76" gradientUnits="userSpaceOnUse">
<stop stop-color="#052E8D"/>
<stop offset="1" stop-color="#1050E4"/>
</linearGradient>
<linearGradient id="paint49_linear_371_6949" x1="388.973" y1="418.544" x2="389.034" y2="419.424" gradientUnits="userSpaceOnUse">
<stop stop-color="#1050E4"/>
<stop offset="1" stop-color="#1050E4"/>
</linearGradient>
<linearGradient id="paint50_linear_371_6949" x1="333.092" y1="286.709" x2="341.97" y2="413.671" gradientUnits="userSpaceOnUse">
<stop stop-color="#052E8C"/>
<stop offset="1" stop-color="#052E8C"/>
</linearGradient>
<linearGradient id="paint51_linear_371_6949" x1="403.762" y1="418.394" x2="403.803" y2="418.974" gradientUnits="userSpaceOnUse">
<stop stop-color="#1050E4"/>
<stop offset="1" stop-color="#1050E4"/>
</linearGradient>
<linearGradient id="paint52_linear_371_6949" x1="398.598" y1="136.252" x2="398.7" y2="137.702" gradientUnits="userSpaceOnUse">
<stop stop-color="#1255F0"/>
<stop offset="0.5" stop-color="#457AF6"/>
<stop offset="1" stop-color="#83A7FC"/>
</linearGradient>
<linearGradient id="paint53_linear_371_6949" x1="409.952" y1="418.544" x2="410.014" y2="419.424" gradientUnits="userSpaceOnUse">
<stop stop-color="#1050E4"/>
<stop offset="1" stop-color="#1050E4"/>
</linearGradient>
<linearGradient id="paint54_linear_371_6949" x1="401.515" y1="136.048" x2="401.81" y2="140.267" gradientUnits="userSpaceOnUse">
<stop stop-color="#1255F0"/>
<stop offset="0.5" stop-color="#063297"/>
<stop offset="1" stop-color="#052D8B"/>
</linearGradient>
<linearGradient id="paint55_linear_371_6949" x1="425.236" y1="407.848" x2="425.967" y2="418.308" gradientUnits="userSpaceOnUse">
<stop stop-color="#052D8C"/>
<stop offset="1" stop-color="#1050E4"/>
</linearGradient>
<linearGradient id="paint56_linear_371_6949" x1="405.872" y1="139.983" x2="407.452" y2="162.584" gradientUnits="userSpaceOnUse">
<stop stop-color="#052D8B"/>
<stop offset="1" stop-color="#052D8B"/>
</linearGradient>
<linearGradient id="paint57_linear_371_6949" x1="314.39" y1="191.99" x2="320.443" y2="278.553" gradientUnits="userSpaceOnUse">
<stop stop-color="#83A8FC"/>
<stop offset="1" stop-color="#83A8FC"/>
</linearGradient>
<linearGradient id="paint58_linear_371_6949" x1="410.729" y1="67.6298" x2="410.831" y2="69.0802" gradientUnits="userSpaceOnUse">
<stop stop-color="#1255F0"/>
<stop offset="0.5" stop-color="#457AF6"/>
<stop offset="1" stop-color="#83A7FC"/>
</linearGradient>
<linearGradient id="paint59_linear_371_6949" x1="421.379" y1="161.61" x2="422.011" y2="170.643" gradientUnits="userSpaceOnUse">
<stop stop-color="#052E8C"/>
<stop offset="0.5" stop-color="#2462F2"/>
<stop offset="1" stop-color="#83A8FC"/>
</linearGradient>
<linearGradient id="paint60_linear_371_6949" x1="413.65" y1="67.4258" x2="413.945" y2="71.6448" gradientUnits="userSpaceOnUse">
<stop stop-color="#1255F0"/>
<stop offset="0.5" stop-color="#063297"/>
<stop offset="1" stop-color="#052D8B"/>
</linearGradient>
<linearGradient id="paint61_linear_371_6949" x1="396.031" y1="72.8973" x2="403.29" y2="176.696" gradientUnits="userSpaceOnUse">
<stop stop-color="#052D8B"/>
<stop offset="1" stop-color="#052D8B"/>
</linearGradient>
<linearGradient id="paint62_linear_371_6949" x1="477.564" y1="171.503" x2="478.195" y2="180.536" gradientUnits="userSpaceOnUse">
<stop stop-color="#052E8C"/>
<stop offset="0.5" stop-color="#2462F2"/>
<stop offset="1" stop-color="#83A8FC"/>
</linearGradient>
<linearGradient id="paint63_linear_371_6949" x1="394.007" y1="59.8478" x2="32.2489" y2="394.77" gradientUnits="userSpaceOnUse">
<stop stop-color="#0E48D0"/>
<stop offset="0.515" stop-color="#FE899B"/>
<stop offset="1" stop-color="#FF8F07"/>
</linearGradient>
</defs>
</svg>
