<svg width="124" height="20" viewBox="0 0 124 20" fill="none" xmlns="http://www.w3.org/2000/svg">
<path fill-rule="evenodd" clip-rule="evenodd" d="M59.2242 18.9023L59.2235 18.9069L59.219 18.9023H59.2242ZM59.2242 18.9023L61.6197 3.58068C61.9379 1.72947 63.2247 0.746735 65.0161 0.746735C66.5938 0.746735 67.9397 1.43694 68.358 3.15559L71.3316 14.272C71.3316 14.3497 71.3589 14.3497 71.3589 14.3497C71.3861 14.3497 71.4134 14.3497 71.4134 14.272L74.337 3.2333C74.7826 1.51464 76.1557 0.746735 77.7607 0.746735C79.5249 0.746735 80.7889 1.75233 81.0526 3.65839L83.2396 18.9023H79.343L77.6289 4.92452C77.6289 4.79197 77.6016 4.71426 77.497 4.71426C77.4197 4.71426 77.3652 4.76911 77.3379 4.87424L74.046 16.6808C73.6777 18.0292 72.6229 18.692 71.3589 18.692C70.0949 18.692 69.0173 18.0567 68.699 16.7585L65.4071 4.87424C65.3799 4.74169 65.3298 4.71426 65.2753 4.71426C65.198 4.71426 65.1161 4.76911 65.1161 4.90167L63.1156 18.9023H59.2242ZM9.21664 0.751393C7.55707 0.751393 5.97934 1.67928 5.37462 3.6082L0.68689 18.9069H4.60621L5.63378 15.2822L12.8222 15.2548L13.8498 18.9069H17.7737L13.086 3.6082C12.4812 1.67928 10.8762 0.751393 9.21664 0.751393ZM11.8265 11.8129H6.63862L8.66648 4.74635C8.77561 4.3761 8.95748 4.21612 9.24847 4.21612C9.5622 4.21612 9.72134 4.3761 9.82591 4.74635L11.8265 11.8129ZM29.2044 0.75144C27.5449 0.75144 25.9626 1.67476 25.3579 3.60824L20.6701 18.907H24.594L25.6216 15.2823L32.81 15.2549L33.8376 18.907H37.7615L33.0738 3.60824C32.469 1.67933 30.864 0.75144 29.2044 0.75144ZM31.8097 11.813H26.6264L28.6543 4.74639C28.7589 4.37615 28.9407 4.21617 29.2317 4.21617C29.5455 4.21617 29.7046 4.37615 29.8092 4.74639L31.8097 11.813ZM41.8452 18.9037V1.091H48.0834C53.1121 1.091 56.1949 3.44501 56.1949 7.57709C56.1949 11.7092 53.1667 14.1957 48.2971 14.1957H45.6918V18.8809L41.8498 18.9083L41.8452 18.9037ZM45.6873 4.66543V10.6213H48.188C50.716 10.6213 52.2437 9.64313 52.2437 7.57709C52.2437 5.51105 50.716 4.66543 48.188 4.66543H45.6873ZM86.45 10.0155C86.45 4.77268 90.4239 0.777728 95.6618 0.777728C100.9 0.777728 104.905 4.77268 104.905 10.0155C104.905 15.2583 100.904 19.2532 95.6618 19.2532C90.4194 19.2532 86.4455 15.2811 86.4455 10.0155H86.45ZM100.932 10.0155C100.932 6.86615 98.6399 4.42987 95.6663 4.42987C92.6927 4.42987 90.4012 6.86615 90.4012 10.0155C90.4012 13.1648 92.72 15.6011 95.6663 15.6011C98.6126 15.6011 100.932 13.1648 100.932 10.0155ZM109.227 1.091V18.9037H113.014L113.041 13.213H114.542C116.547 13.213 117.311 14.086 118.125 15.727L119.702 18.9037H123.863L122.153 15.3842C121.235 13.5284 120.575 12.3125 119.443 11.6772C121.708 11.0692 123.131 9.19061 123.131 6.75433C123.131 2.96963 120.048 1.091 116.047 1.091H109.227ZM113.069 4.67L113.041 9.77568H116.042C117.856 9.77568 119.175 8.82494 119.175 7.15656C119.175 5.48819 117.834 4.67 116.092 4.67H113.069Z" fill="#001F4D"/>
</svg>
