<svg width="20" height="20" viewBox="0 0 20 20" fill="none" xmlns="http://www.w3.org/2000/svg">
<g clip-path="url(#clip0_1713_2646)">
<path d="M16.6672 7.33464V11.3346C16.6672 13.0656 16.1058 14.7499 15.0672 16.1346L14.2672 17.2013C13.7704 17.8637 13.1262 18.4013 12.3857 18.7716C11.6451 19.1419 10.8285 19.3346 10.0005 19.3346C9.17255 19.3346 8.35594 19.1419 7.61538 18.7716C6.87482 18.4013 6.23064 17.8637 5.73386 17.2013L4.93386 16.1346C3.89528 14.7499 3.33386 13.0656 3.33386 11.3346V7.33464M16.6672 7.33464C16.6672 5.56653 15.9648 3.87083 14.7146 2.62059C13.4643 1.37035 11.7686 0.667969 10.0005 0.667969C8.23241 0.667969 6.53672 1.37035 5.28648 2.62059C4.03623 3.87083 3.33386 5.56653 3.33386 7.33464M16.6672 7.33464L15.1725 5.83997C14.801 5.46835 14.3599 5.17357 13.8745 4.97247C13.389 4.77138 12.8687 4.66791 12.3432 4.66797H7.65786C7.13239 4.66791 6.61205 4.77138 6.12659 4.97247C5.64112 5.17357 5.20003 5.46835 4.82852 5.83997L3.33386 7.33464M6.66719 11.3346H8.00052M12.0005 11.3346H13.3339M8.00052 8.66797H3.33386C3.01752 8.66808 2.70537 8.74026 2.42109 8.87902C2.13681 9.01777 1.88787 9.21946 1.69317 9.46878C1.49847 9.7181 1.36312 10.0085 1.2974 10.3179C1.23168 10.6274 1.2373 10.9477 1.31386 11.2546L1.51519 12.0613C1.65377 12.6155 1.97366 13.1075 2.42399 13.459C2.87432 13.8105 3.42924 14.0014 4.00052 14.0013M12.0005 8.66797H16.6672C18.0219 8.66797 19.0152 9.9413 18.6872 11.2546L18.4859 12.0613C18.3473 12.6155 18.0274 13.1075 17.5771 13.459C17.1267 13.8105 16.5718 14.0014 16.0005 14.0013M4.00052 14.668L5.11652 15.3373C6.56721 16.208 8.22728 16.6679 9.91919 16.668H10.0819C11.7738 16.6679 13.4338 16.208 14.8845 15.3373L16.0005 14.668M7.33386 16.0013L8.66719 14.668H11.3339L12.6672 16.0013" stroke="white"/>
</g>
<defs>
<clipPath id="clip0_1713_2646">
<rect width="20" height="20" fill="white"/>
</clipPath>
</defs>
</svg>
