<svg width="20" height="20" viewBox="0 0 20 20" fill="none" xmlns="http://www.w3.org/2000/svg">
<path d="M1.33398 14.0013H18.6673M3.33398 14.0013V7.33464C3.33398 5.56653 4.03636 3.87083 5.28661 2.62059C6.53685 1.37035 8.23254 0.667969 10.0006 0.667969C11.7688 0.667969 13.4645 1.37035 14.7147 2.62059C15.9649 3.87083 16.6673 5.56653 16.6673 7.33464V14.0013M7.33398 16.0013V16.668C7.33398 17.3752 7.61493 18.0535 8.11503 18.5536C8.61513 19.0537 9.29341 19.3346 10.0006 19.3346C10.7079 19.3346 11.3862 19.0537 11.8863 18.5536C12.3864 18.0535 12.6673 17.3752 12.6673 16.668V16.0013" stroke="white"/>
</svg>
