<?xml version="1.0" encoding="utf-8"?>
<!-- Generator: Adobe Illustrator 27.5.0, SVG Export Plug-In . SVG Version: 6.00 Build 0)  -->
<svg version="1.1" id="Layer_1" xmlns="http://www.w3.org/2000/svg" xmlns:xlink="http://www.w3.org/1999/xlink" x="0px" y="0px"
	 viewBox="-15068.874 2689.678 4251.973 2845.289" style="enable-background:new -15068.874 2689.678 4251.973 2845.289;"
	 xml:space="preserve">
<rect x="-15068.874" y="2689.678" style="fill:#FFFFFF;" width="4251.973" height="2845.289"/>
<g>
	<g>
		<path style="fill:#020000;" d="M-12854.646,3998.708c-0.783,0-1.58-0.246-2.23-0.709c0,0-64.757-45.866-68.987-48.951
			c-1.408-1.024-1.951-2.867-1.326-4.493l8.864-23.108c0.409-1.075,1.287-1.912,2.388-2.275c1.115-0.365,2.282-0.206,3.264,0.396
			l75.491,47.765c0.861,0.551,1.473,1.42,1.698,2.415c0.225,0.996,0.039,2.044-0.505,2.907l-15.405,24.264
			c-0.558,0.888-1.473,1.511-2.509,1.717C-12854.154,3998.683-12854.394,3998.708-12854.646,3998.708z M-12918.937,3944.535
			c10.72,7.643,51.3,36.392,63.215,44.832l11.161-17.582l-68.26-43.193L-12918.937,3944.535z"/>
	</g>
	<g>
		<path style="fill:#020000;" d="M-12923.594,3970.205c-0.784,0-1.553-0.232-2.244-0.716c-0.558-0.397-56.447-40.081-98.752-59.726
			c-39.519-18.186-94.455-37.753-116.668-43.008c9.476,6.105,26.659,15.532,42.225,23.356c1.885,0.955,2.653,3.27,1.7,5.173
			c-0.956,1.912-3.267,2.674-5.177,1.713c-54.63-27.488-53.716-32.398-53.187-35.33c0.162-0.817,0.956-3.523,4.858-3.915
			c12.95-1.254,86.213,25.101,129.486,45.016c42.966,19.953,99.429,60.04,99.999,60.446c1.725,1.233,2.123,3.641,0.902,5.374
			C-12921.206,3969.64-12922.388,3970.205-12923.594,3970.205z"/>
	</g>
	<g>
		<path style="fill:#020000;" d="M-12897.786,4051.091c-0.678,0-1.352-0.179-1.976-0.551c-3.092-1.844-75.81-45.27-87.01-53.77
			c-8.852-6.714-77.471-36.127-103.158-46.901l-80.015-33.547c-2.313-0.848-3.664-1.531-3.85-1.625
			c-1.832-0.941-2.601-3.177-1.727-5.047c0.876-1.884,3.081-2.741,4.976-1.926l3.12,1.307c4.633,1.701,14.502,4.433,26.407,2.667
			c17.277-2.155,40.286-20.573,40.523-20.76c1.647-1.313,4.075-1.075,5.416,0.585c1.327,1.651,1.073,4.08-0.585,5.413
			c-1.007,0.817-24.947,19.977-44.307,22.393c-0.743,0.112-1.474,0.205-2.205,0.285l55.217,23.155
			c3.796,1.593,93.406,39.193,104.83,47.858c9.687,7.338,69.825,43.424,83.548,51.638c7.071-8.226,22.013-25.484,24.136-27.254
			c1.035-1.328,6.355-12.588,10.498-22.083c0.848-1.951,3.158-2.845,5.067-1.989c1.951,0.85,2.84,3.119,1.99,5.069
			c-3.558,8.16-9.897,22.219-12.367,24.681c-2.016,1.785-16.744,18.736-25.608,29.054
			C-12895.608,4050.626-12896.696,4051.091-12897.786,4051.091z"/>
	</g>
	<g>
		<path style="fill:#020000;" d="M-13023.369,4050.323c-1.75,0-3.346-1.216-3.741-3.008c-0.479-2.076,0.834-4.14,2.904-4.604
			l90.513-20.417c2.071-0.438,4.14,0.832,4.605,2.908c0.465,2.077-0.836,4.139-2.907,4.604l-90.513,20.416
			C-13022.787,4050.289-13023.076,4050.323-13023.369,4050.323z"/>
	</g>
	<g>
		<path style="fill:#020000;" d="M-12969.442,4076.13c-1.884,0-3.528-1.393-3.793-3.311l-10.805-75.882
			c-0.288-2.11,1.169-4.061,3.279-4.359c2.138-0.274,4.061,1.172,4.364,3.271l10.776,75.883c0.308,2.11-1.168,4.06-3.265,4.359
			C-12969.07,4076.117-12969.255,4076.13-12969.442,4076.13z"/>
	</g>
	<g>
		<path style="fill:#020000;" d="M-13174.722,4049.552c-0.174,0-0.347-0.014-0.52-0.042c-2.109-0.278-3.596-2.215-3.303-4.326
			l16.56-123.639c0.293-2.117,2.23-3.65,4.325-3.304c2.125,0.278,3.598,2.216,3.317,4.326l-16.573,123.641
			C-13171.165,4048.145-13172.824,4049.552-13174.722,4049.552z"/>
	</g>
	<g>
		<path style="fill:#020000;" d="M-13183.586,3984.842c-1.341,0-2.654-0.71-3.359-1.964c-1.048-1.857-0.385-4.206,1.474-5.249
			l39.676-22.338c1.857-1.042,4.193-0.384,5.242,1.467c1.047,1.856,0.384,4.205-1.473,5.247l-39.676,22.34
			C-13182.288,3984.683-13182.951,3984.842-13183.586,3984.842z"/>
	</g>
	<g>
		<path style="fill:#020000;" d="M-13127.351,4001.409c-1.592,0-3.066-0.981-3.635-2.562l-27.337-76.651
			c-0.715-2.004,0.318-4.206,2.336-4.925c1.963-0.708,4.192,0.335,4.909,2.336l27.362,76.652c0.718,2.004-0.344,4.207-2.334,4.923
			C-13126.476,4001.336-13126.927,4001.409-13127.351,4001.409z"/>
	</g>
	<g>
		<path style="fill:#020000;" d="M-13133.893,4072.66c-0.159,0-0.318-0.015-0.465-0.033c-2.122-0.26-3.621-2.176-3.371-4.286
			l8.48-69.327c0.093-0.737,0.384-1.433,0.863-2.004l42.369-50.842c1.368-1.619,3.781-1.837,5.426-0.489
			c1.634,1.358,1.86,3.787,0.493,5.426l-41.654,49.966l-8.335,68.2C-13130.322,4071.229-13131.97,4072.66-13133.893,4072.66z"/>
	</g>
	<g>
		<path style="fill:#020000;" d="M-12944.148,4076.13c-0.466,0-0.769-0.099-1.076-0.197c-1.712-0.473-14.025-1.846-24.961-2.907
			c-0.396-0.039-0.771-0.139-1.141-0.293l-155.997-66.633l-57.617-21.502c-1.991-0.744-3.001-2.966-2.256-4.958
			c0.742-1.995,2.971-2.984,4.962-2.26l57.777,21.568l155.598,66.468c13.246,1.287,21.578,2.269,24.909,2.932
			c4.417-1.624,25.491-13.436,44.214-24.428c1.845-1.11,4.205-0.466,5.269,1.365c1.089,1.832,0.479,4.193-1.367,5.268
			C-12934.212,4073.118-12941.602,4076.13-12944.148,4076.13z"/>
	</g>
	<g>
		<path style="fill:#020000;" d="M-13077.283,4096.161c-1.818,0-3.438-1.3-3.782-3.15c-0.386-2.09,0.994-4.101,3.076-4.493
			l107.855-20.03c2.125-0.339,4.115,0.995,4.489,3.086c0.396,2.089-0.984,4.1-3.081,4.49l-107.855,20.03
			C-13076.82,4096.134-13077.046,4096.161-13077.283,4096.161z"/>
	</g>
	<g>
		<path style="fill:#020000;" d="M-13174.736,4049.552c-0.625,0-1.247-0.152-1.831-0.472c-1.871-1.016-2.562-3.349-1.553-5.221
			c15.128-27.859,49.072-41.607,50.504-42.177c1.977-0.79,4.221,0.165,4.99,2.149c0.795,1.976-0.158,4.213-2.149,5.003
			c-0.32,0.131-32.791,13.321-46.577,38.7C-13172.044,4048.823-13173.37,4049.552-13174.736,4049.552z"/>
	</g>
	<g>
		<path style="fill:#020000;" d="M-12836.547,3969.35c-0.039,0-0.067,0-0.105,0c-2.082-0.06-3.755-1.685-3.755-3.77
			c0-1.061,0.279-2.395,0.928-5.592c12.78-61.983-3.303-113.827-47.795-154.094c-30.495-27.442-68.698-38.298-107.672-30.522
			c-47.371,9.436-91.162,45.463-114.292,94.031c-0.914,1.923-3.225,2.7-5.135,1.817c-1.912-0.916-2.734-3.212-1.816-5.135
			c24.163-50.711,70.035-88.364,119.729-98.27c41.404-8.239,82.008,3.238,114.345,32.364c46.67,42.232,63.55,96.517,50.188,161.365
			c-0.414,2.011-0.731,3.398-0.771,4.088C-12832.816,3967.678-12834.515,3969.35-12836.547,3969.35z"/>
	</g>
	<g>
		<path style="fill:#020000;" d="M-12858.879,4344.212c-0.478,0-0.981-0.095-1.459-0.287c-1.964-0.81-2.92-3.053-2.109-5.021
			c32.044-78.512,40.233-134.734,24.376-167.099c-49.149-101.62-132.168-77.747-192.782-60.311l-1.063,0.305
			c-2.043,0.564-4.178-0.591-4.777-2.642c-0.582-2.043,0.6-4.172,2.653-4.763l1.052-0.305
			c59.698-17.163,149.878-43.105,201.844,64.338c16.853,34.416,8.729,92.756-24.164,173.381
			C-12855.92,4343.303-12857.365,4344.212-12858.879,4344.212z"/>
	</g>
	<g>
		<path style="fill:#020000;" d="M-12987.529,4269.104c-1.736,0-3.303-1.167-3.727-2.919c-0.505-2.017,0.663-4.055,2.654-4.631
			c0.956-0.486,31.168-17.67,19.625-76.846c-9.834-50.378-29.725-57.537-77.802-74.826c-8.065-2.902-16.863-6.065-26.485-9.747
			c-27.495-10.423-45.301-19.361-64.157-28.822c-27.841-13.968-59.384-29.791-131.053-55.499
			c-119.759-42.583-177.508-59.078-178.093-59.244c-2.043-0.577-3.223-2.706-2.64-4.756c0.571-2.037,2.691-3.272,4.763-2.647
			c0.558,0.159,58.508,16.705,178.559,59.395c72.107,25.87,103.887,41.805,131.913,55.864c19.493,9.781,36.317,18.22,63.456,28.51
			c9.566,3.669,18.324,6.815,26.338,9.699c48.01,17.266,72.108,25.93,82.764,80.601c12.051,61.792-18.963,84.198-25.173,85.75
			C-12986.905,4269.064-12987.222,4269.104-12987.529,4269.104z"/>
	</g>
	<g>
		<path style="fill:#020000;" d="M-12892.398,4399.295c-1.75,0-3.316-1.197-3.74-2.961
			c-26.726-111.99-161.6-166.063-280.603-213.762c-66.242-26.552-128.822-51.638-167.994-84.229
			c-46.962-39.371-124.229-83.139-125-83.571c-1.857-1.049-2.506-3.398-1.458-5.249c1.048-1.844,3.396-2.495,5.241-1.467
			c0.782,0.447,78.662,44.554,126.154,84.375c38.243,31.808,100.266,56.669,165.922,82.99
			c120.729,48.398,257.594,103.257,285.219,219.119c0.504,2.071-0.769,4.147-2.837,4.646
			C-12891.815,4399.254-12892.105,4399.295-12892.398,4399.295z"/>
	</g>
	<g>
		<path style="fill:#020000;" d="M-13467.838,4008.343c-0.078,0-0.158-0.007-0.239-0.012c-2.121-0.127-3.74-1.951-3.621-4.075
			c1.619-26.91,21.045-47.42,21.881-48.275c1.447-1.532,3.889-1.591,5.441-0.111c1.525,1.471,1.577,3.914,0.12,5.446
			c-0.188,0.193-18.313,19.374-19.746,43.405C-13464.122,4006.763-13465.819,4008.343-13467.838,4008.343z"/>
	</g>
	<g>
		<path style="fill:#020000;" d="M-13445.505,3956.725c-0.783,0-1.565-0.241-2.255-0.731l-96.285-69.329
			c-1.726-1.24-2.124-3.648-0.876-5.373c1.247-1.731,3.649-2.117,5.361-0.876l96.313,69.328c1.722,1.24,2.106,3.649,0.874,5.374
			C-13443.13,3956.167-13444.31,3956.725-13445.505,3956.725z"/>
	</g>
	<g>
		<path style="fill:#020000;" d="M-13353.465,4164.721c-0.663,0-1.354-0.182-1.979-0.559c-1.817-1.096-2.4-3.465-1.313-5.289
			c21.736-36.079,34.422-45.436,34.951-45.813c1.725-1.234,4.143-0.863,5.374,0.876c1.235,1.717,0.864,4.118-0.861,5.359l0,0
			c-0.105,0.094-12.166,9.205-32.854,43.559C-13350.878,4164.048-13352.152,4164.721-13353.465,4164.721z"/>
	</g>
	<g>
		<path style="fill:#020000;" d="M-13301.449,4226.732c-1.5,0-2.919-0.879-3.543-2.348c-0.226-0.516-22.359-51.956-49.534-59.818
			c-26.726-7.677-57.086,35.422-57.394,35.862c-1.206,1.752-3.596,2.188-5.359,0.954c-1.739-1.214-2.177-3.615-0.956-5.361
			c1.368-1.965,33.971-47.971,65.833-38.86c30.705,8.885,53.54,61.958,54.496,64.213c0.837,1.957-0.078,4.219-2.029,5.047
			C-13300.44,4226.634-13300.944,4226.732-13301.449,4226.732z"/>
	</g>
	<g>
		<path style="fill:#020000;" d="M-13447.096,4344.914c-4.395,0-8.6-0.432-12.58-1.293c-14.676-3.187-26.088-12.09-33.892-26.468
			c-22.267-39.814-10.217-178.847-9.701-184.747c0.201-2.13,2.164-3.694,4.182-3.496c2.123,0.188,3.688,2.057,3.49,4.174
			c-0.121,1.421-12.354,142.557,8.771,180.355c6.715,12.354,16.401,19.963,28.769,22.65c23.62,5.095,57.645-7.855,95.753-36.565
			c57.26-43.132,62.368-99.122,62.394-99.682c0.187-2.129,2.137-3.629,4.153-3.535c2.124,0.171,3.704,2.03,3.545,4.146
			c-0.214,2.429-5.454,60.026-65.474,105.227C-13392,4331.547-13422.601,4344.914-13447.096,4344.914z"/>
	</g>
	<g>
		<path style="fill:#020000;" d="M-13487.171,4079.25c-1.485,0-2.894-0.193-4.192-0.619c-12.66-4.079-36.387-42.203-41.016-49.8
			c-1.103-1.817-0.532-4.187,1.284-5.295c1.82-1.094,4.195-0.518,5.296,1.286c10.138,16.656,29.102,43.996,36.797,46.478
			c4.897,1.605,16.098-3.822,24.39-11.823c5.839-5.641,7.882-10.351,7.326-12.342c-2.654-9.553-39.172-46.417-43.261-49.555
			c-1.673-1.281-2.044-3.69-0.795-5.373c1.26-1.688,3.581-2.091,5.308-0.877c2.999,2.15,42.727,41.288,46.15,53.723
			c2.124,7.431-4.961,15.696-9.379,19.963C-13467.16,4072.64-13478.494,4079.25-13487.171,4079.25z"/>
	</g>
	<g>
		<path style="fill:#020000;" d="M-13459.411,4167.062c-28.899,0-39.915-13.39-43.339-19.275c-1.087-1.838-0.465-4.201,1.381-5.27
			c1.83-1.073,4.194-0.45,5.253,1.381c2.855,4.872,12.301,16.184,38.961,15.434c23.542-0.924,35.006-16.024,37.688-20.105
			c-8.362-59.76-13.298-71.119-42.452-120.461c-1.073-1.832-0.463-4.194,1.368-5.273c1.804-1.083,4.168-0.474,5.269,1.358
			c30.054,50.868,34.951,62.288,43.643,124.681c0.105,0.817-0.054,1.644-0.437,2.37c-0.531,0.976-13.351,23.892-44.839,25.126
			C-13457.767,4167.048-13458.589,4167.062-13459.411,4167.062z"/>
	</g>
	<g>
		<path style="fill:#020000;" d="M-13497.827,4135.102c-0.89,0-1.419-0.081-1.672-0.133c-2.083-0.464-3.384-2.521-2.933-4.599
			c0.466-2.075,2.494-3.356,4.604-2.926c-0.014-0.013,0.015,0.006,0.187,0.006c1.313,0,9.807-0.396,36.466-10.986
			c29.181-11.604,32.151-28.98,32.271-29.717c0.332-2.09,2.27-3.57,4.365-3.245c2.097,0.306,3.557,2.216,3.264,4.313
			c-0.119,0.908-3.383,22.41-37.047,35.802C-13483.747,4133.721-13494.073,4135.102-13497.827,4135.102z"/>
	</g>
	<g>
		<path style="fill:#020000;" d="M-13405.84,4243.68c-1.832,0-3.465-1.319-3.783-3.185c-3.662-20.819-8.719-46.146-12.405-64.644
			c-2.549-12.759-4.475-22.445-4.952-25.585c-0.316-2.102,1.141-4.067,3.24-4.378c2.096-0.285,4.071,1.135,4.378,3.24
			c0.478,3.09,2.387,12.638,4.882,25.217c3.704,18.531,8.757,43.91,12.447,64.81c0.357,2.097-1.033,4.095-3.133,4.465
			C-13405.392,4243.658-13405.614,4243.68-13405.84,4243.68z"/>
	</g>
	<g>
		<path style="fill:#020000;" d="M-13565.676,4128.896c-1.591,0-3.076-0.986-3.634-2.572c-0.851-2.41-20.702-59.495-6.955-101.089
			c9.926-29.272,37.396-53.756,58.691-64.12c6.941-3.369,16.587-6.9,23.264-4.563c17.728,6.535,10.483,36.782,10.177,38.07
			c-0.49,1.978-2.399,3.271-4.418,2.873c-1.168-0.246-29.432-4.128-41.8,46.8c-13.109,52.483,8.108,76.357,8.32,76.586
			c1.447,1.56,1.34,3.995-0.197,5.435c-1.567,1.454-3.983,1.373-5.441-0.18c-0.996-1.066-24.365-26.831-10.166-83.685
			c11.585-47.677,37.104-52.686,46.814-52.793c1.144-6.814,2.787-22.665-5.89-25.856c-2.389-0.855-8.214-0.179-17.291,4.24
			c-19.918,9.688-45.543,32.484-54.764,59.641c-12.899,39.046,6.715,95.51,6.913,96.079c0.703,2.004-0.332,4.207-2.35,4.91
			C-13564.825,4128.824-13565.249,4128.896-13565.676,4128.896z"/>
	</g>
	<g>
		<path style="fill:#020000;" d="M-13583.389,4120.041c-1.328,0-2.615-0.685-3.331-1.912c-0.745-1.254-17.887-31.269-14.782-83.824
			c3.317-55.958,48.791-79.378,70.646-90.632c27.654-14.27,42.438,0.492,43.046,1.128c1.488,1.526,1.437,3.961-0.077,5.439
			c-1.514,1.474-3.956,1.447-5.428-0.053c-0.519-0.524-11.758-11.133-34.012,0.332c-22.159,11.421-63.428,32.664-66.479,84.237
			c-2.972,50.253,13.561,79.199,13.733,79.485c1.076,1.838,0.465,4.193-1.381,5.267
			C-13582.063,4119.868-13582.74,4120.041-13583.389,4120.041z"/>
	</g>
	<g>
		<path style="fill:#020000;" d="M-13589.562,4107.711c-1.457,0-2.865-0.834-3.5-2.254c-1.249-2.732-30.47-67.29-25.346-99.65
			c5.015-31.667,37.128-69.293,67.344-78.947c14.104-4.485,24.27-5.042,30.293-1.619c3.716,2.109,4.538,5.018,4.672,5.58
			c0.477,2.073-0.809,4.141-2.894,4.62c-1.909,0.464-3.941-0.696-4.538-2.608c-0.797-1.52-7.047-4.433-25.187,1.368
			c-27.36,8.737-57.537,44.127-62.075,72.817c-4.775,30.068,24.442,94.593,24.735,95.242c0.875,1.938,0.028,4.221-1.909,5.103
			C-13588.472,4107.602-13589.027,4107.711-13589.562,4107.711z"/>
	</g>
	<g>
		<path style="fill:#020000;" d="M-13595.718,4093.46c-1.246,0-2.467-0.602-3.211-1.711c-0.967-1.452-23.938-35.881-28.289-55.62
			c-3.639-16.512-14.705-66.778,18.748-100.232c32.473-32.465,55.297-25.9,56.253-25.61c2.043,0.63,3.169,2.788,2.547,4.818
			c-0.638,2.023-2.734,3.171-4.777,2.555c-0.36-0.087-19.866-5.01-48.568,23.685c-27.309,27.317-22.598,66.23-16.68,93.127
			c4.033,18.333,26.938,52.649,27.163,52.993c1.192,1.766,0.717,4.16-1.048,5.342
			C-13594.229,4093.248-13594.974,4093.46-13595.718,4093.46z"/>
	</g>
	<g>
		<path style="fill:#020000;" d="M-13527.722,4157.088c-15.169,0-27.946-22.896-29.407-25.598c-1.009-1.869-0.318-4.206,1.566-5.215
			c1.855-0.994,4.22-0.303,5.215,1.56c3.184,5.899,14.384,22.571,23.525,21.499c2.244-0.193,3.77-0.963,4.911-2.424
			c2.881-3.688,2.482-10.92,2.122-13.162c-0.344-2.098,1.075-4.074,3.186-4.421c2.043-0.283,4.075,1.089,4.407,3.188
			c0.213,1.22,1.804,12.16-3.638,19.134c-2.441,3.138-5.984,4.988-10.23,5.347
			C-13526.622,4157.063-13527.164,4157.088-13527.722,4157.088z"/>
	</g>
	<g>
		<path style="fill:#020000;" d="M-13631.146,3974.831c-0.105,0-0.214-0.008-0.319-0.013c-2.122-0.174-3.703-2.031-3.529-4.153
			c0.106-1.42,3.091-35.119,29.433-65.388c26.114-30.089,70.382-34.64,72.266-34.819c1.938-0.173,3.98,1.347,4.195,3.465
			c0.197,2.115-1.355,3.999-3.465,4.206c-0.438,0.039-43.112,4.471-67.186,32.205c-24.692,28.371-27.548,60.629-27.573,60.954
			C-13627.482,3973.299-13629.17,3974.831-13631.146,3974.831z"/>
	</g>
	<g>
		<path style="fill:#020000;" d="M-13510.618,3909.332c-1.514,0-2.933-0.897-3.543-2.383c-0.212-0.511-4.962-12.613,5.519-26.149
			c5.416-6.999,6.479-22.059,2.018-28.781c-2.004-3.019-4.802-3.942-8.757-2.894c-13.165,3.57-16.814,3.61-18.511,0.174
			c-0.972-1.944-0.28-4.273,1.686-5.786c1.578-1.208,3.807-1.023,5.148,0.41c1.698-0.271,4.658-0.881,9.673-2.235
			c7.204-1.924,13.31,0.232,17.184,6.07c6.263,9.443,5.096,28.146-2.35,37.753c-7.653,9.893-4.603,18.22-4.472,18.563
			c0.771,1.978-0.211,4.206-2.177,4.984C-13509.647,3909.245-13510.142,3909.332-13510.618,3909.332z"/>
	</g>
	<g>
		<path style="fill:#020000;" d="M-13626.156,4039.155c-0.293,0-0.586-0.04-0.889-0.106c-0.759-0.179-18.42-4.445-27.696-10.091
			c-8.758-5.958-31.951-26.885-32.933-27.774c-1.437-1.3-1.673-3.462-0.586-5.054l9.527-13.741
			c-1.273-8.508-5.731-47.804,14.703-78.638c22.703-33.664,101.353-88.628,123.143-74.681
			c16.387,10.695,15.353,39.031,12.526,52.529c-1.063,5.101-2.202,7.955-5.108,8.439c-2.059,0.338-4.073-1.07-4.433-3.171
			c-0.212-1.269,0.226-2.503,1.076-3.351c2.282-5.342,6.768-38.19-8.229-47.977c-15.431-9.913-89.038,37.585-112.577,72.497
			c-20.783,31.364-13.354,74.151-13.271,74.577c0.188,1.008-0.028,2.043-0.611,2.885l-8.465,12.229
			c6.316,5.652,22.849,20.283,29.418,24.755c8.067,4.908,25.132,9.029,25.305,9.071c2.071,0.494,3.345,2.572,2.854,4.643
			C-13622.825,4037.967-13624.406,4039.155-13626.156,4039.155z"/>
	</g>
	<g>
		<path style="fill:#020000;" d="M-13637.119,3988.325c-5.996,0-17.012-3.664-20.512-17.98
			c-4.037-16.547,13.585-59.223,15.603-64.033c0.822-1.97,3.053-2.886,5.043-2.057c1.965,0.823,2.88,3.079,2.058,5.042
			c-5.216,12.428-18.126,47.287-15.222,59.223c2.974,12.176,12.447,12.09,13.403,12.09c2.228,0.091,3.929,1.551,4.02,3.663
			c0.092,2.115-1.499,3.907-3.609,4.033C-13636.587,3988.32-13636.84,3988.325-13637.119,3988.325z"/>
	</g>
	<g>
		<path style="fill:#020000;" d="M-13681.227,3985.613c-0.478,0-0.956-0.086-1.419-0.273l-16.561-6.548
			c-1.341-0.524-2.269-1.743-2.416-3.166c-0.332-3.083-7.975-75.929,22.201-100.463c30.043-24.119,71.283-23.255,73.008-23.203
			c2.138,0.06,3.811,1.832,3.744,3.955c-0.054,2.13-1.712,3.649-3.955,3.741c-0.372-0.012-40.167-0.816-67.969,21.496
			c-24.15,19.646-20.619,78.928-19.584,91.343l14.356,5.679c1.991,0.782,2.947,3.018,2.178,4.997
			C-13678.253,3984.69-13679.699,3985.613-13681.227,3985.613z"/>
	</g>
	<g>
		<path style="fill:#020000;" d="M-13698.186,3975.216c-0.956,0-1.938-0.372-2.679-1.104
			c-34.728-33.97-415.713-266.747-419.563-269.094c-0.981-0.598-1.645-1.614-1.804-2.761c-0.106-0.842-2.682-20.959,9.421-55.34
			c11.942-33.865,31.716-67.371,31.928-67.703c0.903-1.552,2.787-2.255,4.51-1.691c2.257,0.743,56.504,19.083,179.116,92.795
			c122.862,74.025,255.68,184.501,257.006,185.609c1.632,1.366,1.856,3.795,0.491,5.427c-1.354,1.645-3.783,1.851-5.428,0.491
			c-1.326-1.108-133.705-111.22-256.05-184.927c-106.066-63.781-161.73-86.201-174.617-91.022
			c-4.897,8.591-19.972,35.999-29.683,63.58c-9.45,26.839-9.476,44.573-9.186,49.996c31.158,19.036,384.715,235.37,419.242,269.134
			c1.514,1.485,1.542,3.927,0.054,5.446C-13696.182,3974.823-13697.176,3975.216-13698.186,3975.216z"/>
	</g>
	<g>
		<path style="fill:#020000;" d="M-13687.782,3890.474c-0.424,0-0.848-0.072-1.274-0.218c-2.002-0.703-3.063-2.898-2.361-4.91
			l13.867-39.669c0.702-2.01,2.88-3.059,4.909-2.362c2.004,0.703,3.065,2.9,2.363,4.91l-13.867,39.67
			C-13684.703,3889.48-13686.188,3890.474-13687.782,3890.474z"/>
	</g>
	<g>
		<path style="fill:#020000;" d="M-13673.927,3850.805c-0.691,0-1.408-0.199-2.046-0.604
			c-401.116-254.406-402.098-256.368-402.732-257.67c-0.956-1.904-0.187-4.22,1.711-5.167c1.501-0.757,3.251-0.438,4.391,0.669
			c9.09,6.935,265.74,170.032,400.745,255.668c1.807,1.134,2.336,3.516,1.195,5.314
			C-13671.394,3850.167-13672.642,3850.805-13673.927,3850.805z"/>
	</g>
	<g>
		<path style="fill:#020000;" d="M-12983.747,3997.554c-0.239,0-0.476,0-0.74,0c-2.125-0.02-3.824-1.758-3.824-3.888
			c0.027-2.124,1.884-3.688,3.901-3.822c0.213,0.008,0.438,0.008,0.65,0.008c42.448,0,73.13-34.906,73.422-35.264
			c1.405-1.6,3.833-1.772,5.441-0.392c1.605,1.393,1.775,3.822,0.396,5.434
			C-12905.853,3961.183-12937.832,3997.554-12983.747,3997.554z"/>
	</g>
	<g>
		<path style="fill:#020000;" d="M-12997.918,4740.563c-0.173,0-0.332-0.013-0.504-0.033c-2.097-0.268-3.596-2.196-3.331-4.308
			c9.846-77.542,19.149-219.432,7.484-455.069c-0.529-10.633-0.638-12.997-0.571-13.854c0.134-2.116,1.764-3.696,4.089-3.583
			c2.107,0.141,3.712,1.951,3.596,4.053c-0.028,0.976,0.198,5.488,0.568,12.998c11.704,236.201,2.364,378.578-7.522,456.424
			C-12994.361,4739.137-12996.009,4740.563-12997.918,4740.563z"/>
	</g>
	<g>
		<path style="fill:#020000;" d="M-12386.665,3670.152c-0.078,0-0.159-0.006-0.237-0.013c-0.279-0.013-6.913-0.472-17.781-4.891
			c-9.954-4.432-19.241-20.887-22.269-26.652c-13.479-2.209-96.31-16.475-256.502-58.703
			c-161.092-42.824-308.916-93.925-332.523-102.172l-13.15,27.322c-0.929,1.911-3.239,2.721-5.148,1.8
			c-1.912-0.923-2.706-3.226-1.793-5.143l14.638-30.428c0.861-1.771,2.933-2.601,4.763-1.957
			c1.581,0.558,160.577,56.714,335.18,103.132c174.494,45.992,256.849,58.718,257.671,58.845c1.245,0.192,2.309,0.975,2.864,2.11
			c2.842,5.758,11.839,21.436,19.295,24.76c9.45,3.842,15.194,4.287,15.261,4.292c2.11,0.154,3.717,1.985,3.568,4.101
			C-12382.975,3668.586-12384.647,3670.152-12386.665,3670.152z"/>
	</g>
	<g>
		<path style="fill:#020000;" d="M-12415.167,3690.567c-1.274,0-2.547-0.649-3.264-1.824l-16.733-26.912
			c-21.563-2.428-223.529-25.563-346.802-54.564c-129.567-30.573-253.93-97.525-255.165-98.204c-1.871-1.008-2.563-3.35-1.553-5.22
			c1.023-1.872,3.346-2.582,5.229-1.547c1.221,0.664,124.708,67.137,253.267,97.473c129.218,30.408,345.554,54.373,347.717,54.61
			c1.192,0.127,2.23,0.791,2.865,1.798l17.703,28.504c1.125,1.806,0.583,4.182-1.234,5.302
			C-12413.762,3690.374-12414.479,3690.567-12415.167,3690.567z"/>
	</g>
	<g>
		<path style="fill:#020000;" d="M-12413.998,3691.729c-0.293,0-0.611-0.039-0.904-0.113
			c-1.446-0.354-145.675-35.145-270.288-48.448c-125.12-13.687-211.399-60.563-251.714-87.281c-1.765-1.174-2.256-3.57-1.076-5.341
			c1.169-1.758,3.544-2.257,5.349-1.081c39.704,26.333,124.776,72.531,248.274,86.047c125.121,13.354,269.826,48.267,271.259,48.619
			c2.071,0.498,3.345,2.582,2.841,4.65C-12410.682,3690.541-12412.263,3691.729-12413.998,3691.729z"/>
	</g>
	<g>
		<path style="fill:#020000;" d="M-12716.361,3942.857h-21.194c-2.134,0-3.86-1.725-3.86-3.854s1.727-3.855,3.86-3.855h17.386
			c0.597-19.56,7.921-105.228,89.066-118.578c37.221-5.972,70.819,1.931,97.04,22.837c27.414,21.85,45.223,56.68,47.638,93.187
			c0.134,2.124-1.473,3.953-3.597,4.092c-2.121,0.174-3.953-1.466-4.1-3.589c-2.27-34.375-19.003-67.144-44.732-87.665
			c-24.481-19.526-55.997-26.878-91.018-21.259c-84.554,13.907-82.75,110.61-82.642,114.716c0.025,1.042-0.358,2.051-1.09,2.794
			C-12714.318,3942.433-12715.328,3942.857-12716.361,3942.857z"/>
	</g>
	<g>
		<path style="fill:#020000;" d="M-12468.312,3968.665c-0.307,0-0.6-0.039-0.89-0.105l-38.535-9.242
			c-2.071-0.498-3.346-2.581-2.84-4.646c0.476-2.067,2.534-3.35,4.644-2.851l33.162,7.961l-2.11-18.238l-31.052-5.287
			c-2.109-0.361-3.515-2.343-3.158-4.441c0.36-2.102,2.363-3.523,4.432-3.152l33.918,5.772c1.687,0.286,2.974,1.651,3.186,3.351
			l3.078,26.579c0.133,1.255-0.344,2.495-1.274,3.324C-12466.469,3968.328-12467.384,3968.665-12468.312,3968.665z"/>
	</g>
	<g>
		<path style="fill:#020000;" d="M-12734.859,3977.909c-1.009,0-1.99-0.405-2.707-1.121c-0.758-0.745-1.167-1.765-1.143-2.821
			l0.77-35.052c0.053-2.097,1.753-3.769,3.85-3.769c0.024,0,0.053,0.007,0.078,0.007c2.123,0.047,3.821,1.806,3.768,3.936
			l-0.674,30.989l8.648-0.258c1.979-0.04,3.917,1.606,3.971,3.728c0.066,2.13-1.606,3.909-3.729,3.97l-12.711,0.384
			C-12734.781,3977.903-12734.821,3977.909-12734.859,3977.909z"/>
	</g>
	<g>
		<path style="fill:#020000;" d="M-12583.242,3961.394c-69.175,0-148.313-3.083-149.468-3.132c-2.124-0.085-3.77-1.877-3.69-3.999
			c0.08-2.124,1.715-3.563,4.008-3.696c1.645,0.067,165.686,6.461,227.124,0.784c2.123-0.308,3.993,1.353,4.194,3.481
			c0.197,2.118-1.354,3.996-3.479,4.187C-12523.634,3960.784-12552.454,3961.394-12583.242,3961.394z"/>
	</g>
	<g>
		<path style="fill:#020000;" d="M-12564.61,3980.894c-70.089,0-155.308-2.567-156.502-2.606c-2.124-0.067-3.796-1.839-3.729-3.97
			c0.066-2.121,1.739-3.834,3.967-3.726c1.647,0.052,164.625,4.961,224.575,1.166c2.057-0.225,3.956,1.474,4.09,3.597
			c0.144,2.124-1.461,3.953-3.585,4.087C-12512.634,3980.508-12537.486,3980.894-12564.61,3980.894z"/>
	</g>
	<g>
		<path style="fill:#020000;" d="M-12523.012,4108.875c-0.941,0-1.895-0.353-2.64-1.048c-1.537-1.46-1.619-3.902-0.159-5.448
			l24.577-26.082l9.26-21.662l-20.314-28.663c-0.914-1.308-0.942-3.051-0.053-4.379l15.127-22.505l-0.384-61.212
			c0-2.131,1.71-3.869,3.835-3.881c0.014,0,0.014,0,0.025,0c2.11,0,3.835,1.711,3.863,3.828l0.37,62.4
			c0,0.775-0.211,1.532-0.65,2.177l-14.317,21.285l20.035,28.256c0.771,1.095,0.931,2.515,0.398,3.743l-10.388,24.269
			c-0.173,0.418-0.438,0.802-0.73,1.128l-25.054,26.578C-12520.966,4108.462-12521.988,4108.875-12523.012,4108.875z"/>
	</g>
	<g>
		<path style="fill:#020000;" d="M-12649.734,4161.256c-0.971,0-1.952-0.372-2.695-1.108l-64.702-63.554
			c-0.45-0.433-0.769-0.957-0.956-1.54l-20.435-62.017c-0.2-0.623-0.239-1.28-0.119-1.923l10.019-53.153
			c0.398-2.09,2.401-3.483,4.498-3.064c2.082,0.392,3.465,2.401,3.066,4.497l-9.834,52.178l19.813,60.185l64.037,62.899
			c1.528,1.49,1.539,3.926,0.054,5.445C-12647.745,4160.871-12648.739,4161.256-12649.734,4161.256z"/>
	</g>
	<g>
		<path style="fill:#020000;" d="M-12683.468,4035.83c-24.083,0-42.901-0.145-43.325-0.145c-2.123-0.021-3.847-1.758-3.821-3.889
			c0.015-2.116,1.725-3.821,3.85-3.821h0.025c0.98,0.012,97.372,0.742,133.813-1.148l85.455-5.389l0.505,7.685l-85.51,5.395
			C-12613.098,4035.592-12652.614,4035.83-12683.468,4035.83z"/>
	</g>
	<g>
		<path style="fill:#020000;" d="M-12605.057,4150.468c-1.09,0-2.162-0.458-2.92-1.349l-49.295-57.389l-38.802-57.75
			c-0.265-0.392-0.45-0.829-0.558-1.293l-12.328-53.922c-0.477-2.07,0.822-4.135,2.894-4.61c2.043-0.472,4.14,0.821,4.618,2.898
			l12.168,53.226l38.122,56.792l49.02,57.032c1.381,1.613,1.196,4.043-0.411,5.428
			C-12603.277,4150.156-12604.167,4150.468-12605.057,4150.468z"/>
	</g>
	<g>
		<path style="fill:#020000;" d="M-12597.73,4149.699c-1.884,0-3.531-1.389-3.821-3.308l-9.238-63.938
			c-0.105-0.657-0.024-1.333,0.213-1.951l20.038-51.229c0.784-1.99,3.01-2.966,4.989-2.188c1.991,0.775,2.973,3.011,2.202,4.989
			l-19.665,50.286l9.104,62.929c0.29,2.105-1.169,4.062-3.265,4.367C-12597.359,4149.684-12597.547,4149.699-12597.73,4149.699z"/>
	</g>
	<g>
		<path style="fill:#020000;" d="M-12585.789,4147.774c-0.902,0-1.831-0.326-2.563-0.975c-1.576-1.415-1.735-3.849-0.316-5.44
			l87.036-98.583c1.38-1.599,3.821-1.757,5.428-0.365c1.605,1.394,1.764,3.83,0.356,5.436l-31.582,36.205l-55.479,62.427
			C-12583.665,4147.334-12584.728,4147.774-12585.789,4147.774z"/>
	</g>
	<g>
		<path style="fill:#020000;" d="M-12712.899,4094.623c-2.056,0-3.755-1.621-3.848-3.69c-0.092-2.122,1.553-3.921,3.678-4.015
			l213.4-9.249c2.043,0.167,3.916,1.566,4.008,3.682c0.092,2.125-1.566,3.923-3.688,4.014l-213.378,9.251
			C-12712.781,4094.615-12712.848,4094.623-12712.899,4094.623z"/>
	</g>
	<g>
		<path style="fill:#020000;" d="M-12479.87,4031.451c-0.135,0-0.293-0.013-0.424-0.027l-27.364-3.083
			c-2.11-0.239-3.635-2.144-3.396-4.261c0.237-2.118,2.175-3.637,4.273-3.396l23.526,2.653l6.859-59.354
			c0.268-2.117,2.23-3.557,4.273-3.384c2.123,0.246,3.637,2.157,3.397,4.273l-7.326,63.169
			C-12476.274,4029.999-12477.934,4031.451-12479.87,4031.451z"/>
	</g>
	<g>
		<path style="fill:#020000;" d="M-12676.421,4165.727c-18.021,0-29.485-4.014-34.648-12.028
			c-9.792-15.22,8.296-37.479,9.064-38.422c1.367-1.626,3.783-1.872,5.414-0.524c1.647,1.347,1.884,3.775,0.532,5.42
			c-4.273,5.209-14.146,20.649-8.521,29.366c4.859,7.518,25.399,16.793,108.547-5.491
			c134.688-36.414,197.864-201.555,218.778-270.87c16.705-55.014,23.737-87.571,23.804-87.897c0.466-2.083,2.534-3.331,4.58-2.959
			c2.068,0.445,3.396,2.495,2.958,4.578c-0.067,0.325-7.152,33.153-23.978,88.514c-21.271,70.536-85.724,238.65-224.151,276.07
			C-12629.445,4160.982-12656.81,4165.727-12676.421,4165.727z"/>
	</g>
	<g>
		<path style="fill:#020000;" d="M-12629.698,4323.418c-1.712,0-3.279-1.148-3.727-2.879c-0.534-2.058,0.687-4.161,2.758-4.707
			c243.392-63.694,275.586-215.458,306.715-362.228c11.57-54.531,23.541-110.913,46.258-161.392
			c0.863-1.938,3.158-2.794,5.083-1.929c1.953,0.868,2.799,3.15,1.925,5.088c-22.372,49.729-34.235,105.7-45.728,159.833
			c-31.609,149.052-64.307,303.177-312.315,368.088C-12629.047,4323.377-12629.379,4323.418-12629.698,4323.418z"/>
	</g>
	<g>
		<path style="fill:#020000;" d="M-12315.353,3787.01c-6.557,0-14.252-0.583-22.89-1.73c-37.329-4.99-48.727-8.272-51.528-9.249
			c-2.731-0.432-3.713-3.225-3.659-10.07c0.077-11.757,6.063-18.778,16.016-18.778c0.848,0.02,77.003,3.252,87.447,17.351
			c4.563,6.163,3.331,10.902,2.177,13.171C-12290.91,3783.88-12300.172,3787.01-12315.353,3787.01z M-12385.575,3769.277
			c4.245,1.193,16.718,4.14,48.354,8.373c8.309,1.102,15.659,1.658,21.869,1.658c17.252,0,20.251-4.227,20.675-5.076
			c0.822-1.604-0.586-3.894-1.485-5.115c-5.428-7.325-56.028-13.616-81.346-14.232c-2.668,0.007-4.644,0.809-5.942,2.475
			C-12385.946,3760.524-12385.882,3766.211-12385.575,3769.277z"/>
	</g>
	<g>
		<path style="fill:#020000;" d="M-12388.588,3749.889c-1.103,0-2.68-0.782-3.41-1.618c-4.074-4.625-5.786-28.087-1.182-63.975
			c5.255-40.838,32.22-90.613,50.625-93.444c9.897-1.229,15.085-0.544,17.475,2.283c1.315,1.552,1.407,3.369,1.048,4.557
			c-0.611,2.038-2.719,3.219-4.803,2.581c-1.076-0.326-1.91-1.081-2.361-2.023c-1.09-0.253-3.902-0.571-10.299,0.231
			c-12.248,1.884-38.734,45.502-44.042,86.797c-4.845,37.746-2.004,54.427-0.729,57.683c0.931,0.705,1.541,1.82,1.541,3.074
			C-12384.726,3748.166-12386.45,3749.889-12388.588,3749.889z"/>
	</g>
	<g>
		<path style="fill:#020000;" d="M-12372.784,3747.574c-0.198,0-0.384-0.015-0.582-0.048c-2.1-0.313-3.557-2.269-3.24-4.372
			l0.347-2.44c7.841-54.453,21.352-122.578,41.161-137.932c26.114-20.211,46.313-2.715,46.525-2.522
			c1.591,1.413,1.725,3.85,0.316,5.436c-1.406,1.591-3.86,1.731-5.44,0.311c-0.636-0.545-15.763-13.336-36.677,2.866
			c-13.669,10.591-27.615,59.043-38.258,132.937l-0.355,2.474C-12369.267,3746.195-12370.914,3747.574-12372.784,3747.574z"/>
	</g>
	<g>
		<path style="fill:#020000;" d="M-12326.181,3665.534c-0.372,0-0.742-0.061-1.128-0.172c-2.03-0.619-3.171-2.773-2.561-4.812
			c1.817-5.932,18.31-58.009,38.801-59.72c20.342-1.687,24.707,8.301,25.131,9.455c0.717,1.997-0.303,4.207-2.308,4.937
			c-2.004,0.735-4.192-0.298-4.937-2.297l0,0c0,0-2.865-5.612-17.252-4.418c-11.57,0.969-25.809,33.817-32.057,54.299
			C-12322.996,3664.464-12324.533,3665.534-12326.181,3665.534z"/>
	</g>
	<g>
		<path style="fill:#020000;" d="M-12295.741,3794.422c-4.112,0-7.643-0.458-9.075-0.668c-2.097-0.319-3.531-2.277-3.225-4.379
			c0.318-2.098,2.269-3.537,4.379-3.239c8.293,1.228,18.43,0.425,19.771-2.721c1.475-3.11,0.57-13.036-0.304-22.637
			c-1.115-12.309-2.39-26.248-0.745-38.376c1.966-14.199,11.719-37.565,20.329-58.182c5.201-12.466,10.112-24.243,12.143-31.33
			c1.393-4.856,1.008-8.745-1.115-11.558c-3.636-4.817-11.37-5.872-14.053-5.872c-3.277,2.017-21.364,27.753-36.439,51.368
			c-1.114,1.799-3.501,2.347-5.308,1.174c-1.791-1.142-2.321-3.523-1.167-5.314c35.019-54.937,40.752-54.937,42.914-54.937
			c4.99,0,14.878,1.885,20.198,8.938c3.659,4.851,4.456,11.014,2.375,18.312c-2.139,7.531-6.916,18.956-12.435,32.186
			c-8.44,20.183-17.992,43.068-19.799,56.258c-1.539,11.253-0.304,24.734,0.769,36.629c1.274,13.821,1.873,21.863-0.343,26.514
			C-12279.632,3793.042-12288.573,3794.422-12295.741,3794.422z"/>
	</g>
	<g>
		<path style="fill:#020000;" d="M-12301.153,3758.356c-0.52,0-1.036-0.1-1.542-0.326c-1.962-0.856-2.838-3.125-1.989-5.068
			c0.08-0.192,8.386-19.44,15.127-59.568c6.609-41.076,25.162-71.729,25.956-73.017c1.115-1.832,3.476-2.401,5.282-1.274
			c1.817,1.109,2.388,3.477,1.274,5.296c-0.188,0.305-18.551,30.706-24.896,70.242c-6.926,41.243-15.338,60.614-15.685,61.418
			C-12298.263,3757.5-12299.668,3758.356-12301.153,3758.356z"/>
	</g>
	<g>
		<path style="fill:#020000;" d="M-12298.447,3699.816c-0.293,0-0.586-0.033-0.874-0.105c-19.137-4.473-50.665-11.644-53.798-11.851
			c-2.163,0.373-3.74-0.975-4.167-3.051c-0.424-2.09,1.302-4.146,3.384-4.563c0.971-0.194,2.667-0.566,56.331,11.97
			c2.071,0.483,3.356,2.553,2.865,4.624C-12295.102,3698.616-12296.697,3699.816-12298.447,3699.816z"/>
	</g>
	<g>
		<path style="fill:#020000;" d="M-12298.817,3721.387c-0.239,0-0.452-0.021-0.691-0.061l-61.254-10.788
			c-2.081-0.372-3.475-2.369-3.119-4.466c0.385-2.097,2.403-3.49,4.475-3.125l61.253,10.787c2.082,0.374,3.477,2.369,3.117,4.466
			C-12295.369,3720.066-12296.985,3721.387-12298.817,3721.387z"/>
	</g>
	<g>
		<path style="fill:#020000;" d="M-12288.442,3825.764c-0.478,0-0.954-0.084-1.405-0.271l-58.547-23.108
			c-1.99-0.784-2.96-3.019-2.178-4.997c0.771-1.976,3-2.966,4.99-2.167l58.548,23.107c1.989,0.782,2.959,3.018,2.177,4.997
			C-12285.458,3824.835-12286.901,3825.764-12288.442,3825.764z"/>
	</g>
	<g>
		<path style="fill:#020000;" d="M-12300,3859.662c-0.519,0-1.033-0.105-1.539-0.325l-56.609-24.654
			c-1.95-0.85-2.84-3.119-1.989-5.07c0.851-1.949,3.119-2.845,5.067-1.989l56.609,24.654c1.951,0.851,2.841,3.119,1.99,5.07
			C-12297.096,3858.795-12298.514,3859.662-12300,3859.662z"/>
	</g>
	<g>
		<path style="fill:#020000;" d="M-12239.516,3669.382c-0.331,0-0.678-0.046-1.022-0.14c-2.043-0.558-3.251-2.673-2.693-4.729
			c0.078-0.293,7.96-29.38,8.332-43.38c0.095-1.719-0.438-2.906-1.684-3.948c-6.186-5.095-24.206-3.581-26.647-2.998
			c-2.069,0.517-4.164-0.757-4.67-2.819c-0.504-2.057,0.742-4.141,2.785-4.651c2.548-0.63,23.94-3.279,33.401,4.513
			c3.173,2.601,4.726,6.136,4.51,10.204c-0.384,14.829-8.265,43.875-8.597,45.108
			C-12236.266,3668.254-12237.818,3669.382-12239.516,3669.382z"/>
	</g>
	<g>
		<path style="fill:#020000;" d="M-12214.876,3682.48c-0.609,0-1.221-0.147-1.802-0.452c-1.885-0.989-2.604-3.324-1.596-5.201
			c4.831-9.17,16.641-35.815,13.166-48.819c-0.706-2.786-2.125-4.724-4.38-5.964c-6.211-3.417-17.077-1.049-20.755,0.159
			c-1.989,0.635-4.191-0.438-4.855-2.461c-0.663-2.023,0.438-4.201,2.468-4.864c0.663-0.212,16.51-5.295,26.859,0.418
			c4.166,2.308,6.897,5.932,8.119,10.781c4.937,18.517-13.057,52.895-13.825,54.347
			C-12212.168,3681.73-12213.496,3682.48-12214.876,3682.48z"/>
	</g>
	<g>
		<path style="fill:#020000;" d="M-12192.928,3700.585c-0.635,0-1.287-0.166-1.884-0.502c-1.856-1.057-2.494-3.403-1.46-5.255
			c6.45-11.319,22.519-43.479,19.626-56.171c-0.731-2.834-2.174-4.823-4.418-5.979c-5.255-2.707-13.801-0.472-16.642,0.624
			c-1.99,0.716-4.22-0.226-4.975-2.209c-0.755-1.983,0.225-4.212,2.216-4.982c0.543-0.207,13.536-5.117,22.93-0.279
			c4.194,2.163,7.085,5.971,8.373,11.013c4.1,17.987-17.887,57.359-20.396,61.791
			C-12190.273,3699.881-12191.571,3700.585-12192.928,3700.585z"/>
	</g>
	<g>
		<path style="fill:#020000;" d="M-12136.663,3704.813c-0.318,0-0.638-0.033-0.956-0.113c-2.071-0.526-3.317-2.621-2.788-4.679
			c0.054-0.25,6.157-25.045-0.715-46.403c-6.448-18.703-32.855-12.161-33.122-12.088c-2.069,0.578-4.166-0.725-4.685-2.773
			c-0.53-2.057,0.706-4.162,2.772-4.686c11.599-2.966,35.354-3.211,42.358,17.112c7.59,23.58,1.144,49.628,0.851,50.731
			C-12133.386,3703.659-12134.951,3704.813-12136.663,3704.813z"/>
	</g>
	<g>
		<path style="fill:#020000;" d="M-12100.305,3751.315c-12.247,0-43.431-5.473-125.16-26.592c-2.056-0.529-3.292-2.634-2.76-4.69
			c0.53-2.058,2.68-3.311,4.697-2.766c53.451,13.813,113.988,27.679,124.631,26.981c7.802-22.245,4.854-28.621,0.967-30.028
			c-9.063-3.463-65.42-9.633-95.688-12.945c-14.451-1.586-21.47-2.354-23.171-2.698c-2.095-0.418-3.437-2.45-3.022-4.531
			c0.422-2.09,2.47-3.479,4.536-3.021c1.434,0.286,11.2,1.353,22.481,2.589c44.347,4.855,88.401,9.885,97.556,13.387
			c15.752,5.721,6.397,32.001,3.32,40.642C-12092.449,3749.377-12093.032,3751.315-12100.305,3751.315z"/>
	</g>
	<g>
		<path style="fill:#020000;" d="M-12217.567,3738.331c-0.971,0-1.952-0.371-2.71-1.115c-23.18-22.843-6.062-44.002-0.423-50.948
			c0.307-0.385,0.597-0.73,0.836-1.028c0.159-1.976,1.817-3.538,3.835-3.538c1.485,0,3.145,0.983,3.782,2.324
			c1.221,2.541-0.331,4.444-2.47,7.085c-9.075,11.212-16.188,24.808-0.159,40.625c1.526,1.493,1.539,3.927,0.054,5.446
			C-12215.577,3737.946-12216.572,3738.331-12217.567,3738.331z"/>
	</g>
	<g>
		<path style="fill:#020000;" d="M-12322.717,3968.281c-0.585,0-1.182-0.131-1.726-0.409c-1.897-0.956-2.668-3.272-1.712-5.17
			c1.963-3.928,48.396-96.351,62.977-118.995c22.904-36.519,30.522-63.303,20.861-73.448c-15.633-16.036-32.711-51.878-33.44-53.39
			c-0.901-1.925-0.079-4.22,1.83-5.136c1.927-0.916,4.22-0.087,5.152,1.831c0.159,0.366,17.248,36.199,32.018,51.354
			c15.99,16.806-2.003,54.366-19.918,82.916c-14.384,22.339-62.129,117.364-62.605,118.319
			C-12319.943,3967.498-12321.313,3968.281-12322.717,3968.281z"/>
	</g>
	<g>
		<path style="fill:#020000;" d="M-12373.566,4138.917c-1.115,0-2.218-0.485-2.986-1.423c-1.341-1.645-1.101-4.071,0.558-5.419
			c106.476-86.943,172.439-150.75,185.75-179.663c23.737-52.456,27.972-143.439,26.245-159.754
			c-2.069-19.766,15.021-42.949,15.767-43.922c1.272-1.713,3.673-2.064,5.385-0.784c1.7,1.268,2.046,3.682,0.783,5.386
			c-0.172,0.214-16.017,21.757-14.291,38.517c1.859,17.324-2.135,109.069-26.885,163.755
			c-17.675,38.421-111.928,120.415-187.898,182.438C-12371.856,4138.63-12372.703,4138.917-12373.566,4138.917z"/>
	</g>
	<g>
		<path style="fill:#020000;" d="M-12207.762,3808.475c-9.579,0-16.615-1.485-20.597-2.329c-1.02-0.213-1.764-0.391-2.215-0.424
			c-2.057,0.285-3.835-1.174-4.126-3.284c-0.306-2.104,1.381-4.067,3.49-4.372c1.072-0.174,2.216,0.079,4.446,0.543
			c8.014,1.688,29.312,6.218,59.687-6.821c1.948-0.822,4.22,0.067,5.053,2.024c0.837,1.957-0.064,4.22-2.028,5.062
			C-12181.674,3806.425-12196.483,3808.475-12207.762,3808.475z"/>
	</g>
	<g>
		<path style="fill:#020000;" d="M-12207.099,3836.739c-21.576,0-33.786-5.996-34.555-6.381c-1.884-0.963-2.64-3.273-1.684-5.163
			c0.953-1.891,3.274-2.634,5.159-1.718c0.268,0.127,26.74,12.898,71.073-1.003c2.043-0.648,4.191,0.492,4.831,2.521
			c0.635,2.031-0.491,4.193-2.523,4.83C-12181.356,3835.027-12195.567,3836.739-12207.099,3836.739z"/>
	</g>
	<g>
		<path style="fill:#020000;" d="M-12261.478,3714.452c-0.119,0-0.254-0.007-0.371-0.02c-2.124-0.212-3.662-2.097-3.464-4.212
			c3.331-33.685,27.509-38.648,28.543-38.841c2.018-0.386,4.114,0.968,4.498,3.064c0.399,2.086-0.97,4.094-3.038,4.5
			c-0.902,0.178-19.612,4.365-22.332,32.033C-12257.844,3712.965-12259.515,3714.452-12261.478,3714.452z"/>
	</g>
	<g>
		<path style="fill:#020000;" d="M-12748.342,4662.365c-0.452,0-0.903-0.081-1.354-0.244c-1.99-0.754-3-2.966-2.255-4.965
			c8.147-21.727,18.271-40.465,28.065-58.586c27.933-51.639,52.044-96.246,10.974-182.611
			c-76.023-159.375,1.194-261.451,1.977-262.467c1.303-1.678,3.73-1.963,5.402-0.669c1.67,1.308,1.991,3.72,0.675,5.399
			c-0.755,0.981-74.987,99.543-1.102,254.424c42.757,89.906,17.781,136.105-11.146,189.592
			c-9.672,17.887-19.679,36.387-27.625,57.625C-12745.317,4661.41-12746.775,4662.365-12748.342,4662.365z"/>
	</g>
	<g>
		<path style="fill:#020000;" d="M-12435.191,4220.18c-0.941,0-1.87-0.338-2.614-1.021c-29.273-26.958-55.441-61.148-82.379-107.591
			c-1.06-1.837-0.449-4.193,1.407-5.262c1.846-1.073,4.192-0.438,5.254,1.4c26.54,45.753,52.256,79.367,80.947,105.786
			c1.565,1.44,1.658,3.874,0.211,5.44C-12433.108,4219.761-12434.157,4220.18-12435.191,4220.18z"/>
	</g>
	<g>
		<path style="fill:#020000;" d="M-12462.542,4655.82c-0.501,0-1.005-0.096-1.51-0.309
			c-149.204-63.454-229.3-263.59-230.098-265.606c-0.783-1.977,0.187-4.214,2.178-4.989c1.938-0.803,4.205,0.188,4.988,2.177
			c0.784,1.983,79.75,199.143,225.955,261.332c1.952,0.83,2.865,3.093,2.032,5.05
			C-12459.62,4654.941-12461.042,4655.82-12462.542,4655.82z"/>
	</g>
	<g>
		<path style="fill:#020000;" d="M-13114.573,4331.279c-78.555,0-156.752-1.983-233.69-5.943c-2.123-0.114-3.742-1.924-3.637-4.048
			c0.105-2.129,2.282-3.61,4.035-3.647c117.94,6.076,238.881,7.487,359.461,4.23c2.563,0.16,3.902,1.626,3.955,3.744
			c0.067,2.129-1.619,3.898-3.743,3.952C-13030.323,4330.709-13072.494,4331.279-13114.573,4331.279z M-12848.873,4323.418
			c-2.018,0-3.715-1.565-3.85-3.604c-0.13-2.122,1.475-3.953,3.597-4.092l8.295-0.545c32.523-2.131,66.162-4.328,99.867-7.16
			c2.068-0.197,3.994,1.389,4.167,3.511c0.185,2.122-1.394,3.988-3.504,4.165c-33.796,2.84-67.463,5.044-100.025,7.172l-8.295,0.538
			C-12848.714,4323.412-12848.794,4323.418-12848.873,4323.418z M-13520.611,4313.014c-0.12,0-0.236-0.007-0.37-0.019
			c-508.892-47.269-810.086-171.592-813.072-172.845c-1.966-0.824-2.879-3.078-2.057-5.036c0.808-1.971,3.077-2.894,5.028-2.064
			c2.985,1.241,303.2,125.128,810.815,172.275c2.125,0.198,3.691,2.07,3.477,4.192
			C-13516.974,4311.516-13518.646,4313.014-13520.611,4313.014z M-12472.943,4286.05c-1.898,0-3.557-1.399-3.821-3.331
			c-0.293-2.109,1.195-4.047,3.292-4.338c347.478-47.778,700.226-134.291,1048.462-257.115c1.989-0.75,4.205,0.333,4.911,2.351
			c0.715,2.005-0.347,4.206-2.336,4.909c-348.741,123.004-701.994,209.635-1049.976,257.486
			C-12472.599,4286.035-12472.771,4286.05-12472.943,4286.05z"/>
	</g>
	<g>
		<path style="fill:#020000;" d="M-13882.288,4374.639c-0.187,0-0.398-0.022-0.586-0.047
			c-512.527-77.733-850.214-203.086-853.558-204.34c-1.989-0.749-2.999-2.971-2.256-4.964c0.756-1.981,3.001-2.971,4.965-2.254
			c3.343,1.26,340.34,126.339,852.003,203.938c2.11,0.321,3.546,2.284,3.226,4.389
			C-13878.784,4373.273-13880.417,4374.639-13882.288,4374.639z M-12120.502,4341.901c-1.79,0-3.396-1.26-3.769-3.078
			c-0.424-2.083,0.902-4.118,2.999-4.552c257.924-52.966,508.841-129.611,745.77-227.806c1.924-0.816,4.207,0.111,5.029,2.082
			c0.822,1.966-0.12,4.22-2.082,5.028c-237.381,98.39-488.764,175.181-747.178,228.249
			C-12119.997,4341.876-12120.248,4341.901-12120.502,4341.901z"/>
	</g>
	<g>
		<path style="fill:#020000;" d="M-13587.249,4609.205c-0.107,0-0.216-0.006-0.321-0.018
			c-641.668-54.094-1048.755-185.652-1052.787-186.971c-2.02-0.663-3.131-2.84-2.468-4.863c0.664-2.019,2.838-3.086,4.855-2.461
			c4.033,1.32,410.351,132.609,1051.037,186.619c2.125,0.179,3.688,2.04,3.516,4.163
			C-13583.587,4607.688-13585.26,4609.205-13587.249,4609.205z M-12203.329,4579.936c-1.912,0-3.557-1.429-3.812-3.379
			c-0.265-2.111,1.236-4.035,3.346-4.3c223.792-28.066,449.02-68.599,669.415-120.481c2.098-0.52,4.141,0.797,4.646,2.866
			c0.476,2.07-0.799,4.147-2.868,4.632c-220.674,51.943-446.181,92.527-670.237,120.627
			C-12202.998,4579.92-12203.17,4579.936-12203.329,4579.936z"/>
	</g>
	<g>
		<path style="fill:#020000;" d="M-13416.603,4670.076c-0.095,0-0.173-0.01-0.265-0.016
			c-758.614-48.016-1226.225-203.934-1230.842-205.5c-2.019-0.682-3.105-2.865-2.417-4.883c0.664-2.025,2.868-3.105,4.884-2.416
			c4.618,1.564,471.367,157.166,1228.876,205.117c2.125,0.133,3.731,1.963,3.585,4.086
			C-13412.9,4668.501-13414.599,4670.076-13416.603,4670.076z M-12272.279,4651.961c-1.964,0-3.637-1.5-3.821-3.496
			c-0.201-2.125,1.352-3.994,3.477-4.194c316.722-29.409,637.952-79.796,954.78-149.754c2.043-0.442,4.111,0.851,4.59,2.933
			c0.452,2.076-0.863,4.135-2.945,4.592c-317.131,70.023-638.685,120.463-955.708,149.9
			C-12272.041,4651.955-12272.148,4651.961-12272.279,4651.961z"/>
	</g>
	<g>
		<path style="fill:#020000;" d="M-11768.456,4817.594c-0.041,0-0.08-0.008-0.12-0.008c-158.321-4.816-322.758-8.961-488.748-12.326
			c-2.124-0.039-3.808-1.799-3.769-3.927c0.039-2.1,1.764-3.777,3.847-3.777c0.027,0,0.053,0,0.081,0.008
			c166.017,3.356,330.479,7.504,488.827,12.325c2.123,0.063,3.796,1.84,3.729,3.969
			C-11764.662,4815.941-11766.388,4817.594-11768.456,4817.594z M-13470.159,4786.014c-0.015,0-0.025,0-0.039-0.01
			c-428.812-4.756-719.375-6.091-727.206-5.412c-2.163,0.306-3.993-1.365-4.178-3.49c-0.201-2.117,1.352-3.986,3.477-4.182
			c9.156-0.808,322.798,0.875,727.985,5.389c2.138,0.019,3.835,1.764,3.811,3.889
			C-13466.338,4784.313-13468.049,4786.014-13470.159,4786.014z"/>
	</g>
	<g>
		<path style="fill:#020000;" d="M-11896.721,4896.945c-0.187,0-0.371-0.014-0.558-0.048
			c-127.469-18.848-268.485-33.478-419.149-43.489c-2.122-0.138-3.729-1.979-3.597-4.094c0.146-2.124,2.058-3.822,4.101-3.59
			c150.877,10.021,292.105,24.676,419.76,43.559c2.11,0.313,3.557,2.269,3.251,4.37
			C-11893.191,4895.566-11894.836,4896.945-11896.721,4896.945z M-13980.141,4876.137c-1.976,0-3.662-1.516-3.821-3.52
			c-0.183-2.125,1.38-3.99,3.505-4.168c2.455-0.212,249.814-21.331,594.134-33.521c2.164-0.151,3.903,1.589,3.983,3.71
			c0.078,2.129-1.594,3.916-3.716,3.99c-344.11,12.18-591.297,33.278-593.738,33.493
			C-13979.914,4876.131-13980.033,4876.137-13980.141,4876.137z"/>
	</g>
	<g>
		<path style="fill:#020000;" d="M-14034.438,4230.199c-0.028,0-0.082-0.008-0.107-0.008c-2.123-0.06-3.796-1.831-3.742-3.953
			l12.328-441.025c0.052-2.124,2.136-3.716,3.955-3.742c2.136,0.059,3.807,1.832,3.74,3.954l-12.328,441.024
			C-14030.645,4228.541-14032.368,4230.199-14034.438,4230.199z M-14016.725,3584.263c-0.039,0-0.066-0.006-0.105-0.006
			c-2.136-0.06-3.809-1.831-3.741-3.955l3.091-108.625c0.054-2.123,2.097-3.709,3.956-3.741c2.122,0.059,3.793,1.831,3.741,3.953
			l-3.092,108.627C-14012.941,3582.604-14014.64,3584.263-14016.725,3584.263z"/>
	</g>
	<g>
		<path style="fill:#020000;" d="M-13898.078,3509.92c-0.359,0-0.717-0.052-1.063-0.151
			c-219.348-62.66-216.402-73.714-215.287-77.874c3.105-11.233,142.33-295.701,158.188-328.1c0.89-1.832,3.066-2.654,4.95-1.858
			l212.62,89.357c0.996,0.412,1.75,1.221,2.122,2.225c0.373,1,0.306,2.115-0.174,3.072l-157.934,311.218
			C-13895.319,3509.132-13896.674,3509.92-13898.078,3509.92z M-14106.521,3432.612c11.2,9.566,112.767,42.038,206.438,68.877
			l154.604-304.692l-205.44-86.346C-13993.715,3197.858-14098.147,3411.971-14106.521,3432.612z"/>
	</g>
	<g>
		<path style="fill:#020000;" d="M-13888.844,3476.8c-0.424,0-0.836-0.074-1.246-0.213l-190.288-65.486
			c-2.003-0.69-3.08-2.886-2.389-4.896c0.689-2.023,2.866-3.064,4.909-2.39l190.263,65.487c2.015,0.689,3.076,2.886,2.385,4.897
			C-13885.752,3475.797-13887.253,3476.8-13888.844,3476.8z"/>
	</g>
	<g>
		<path style="fill:#020000;" d="M-13936.217,3182.14c-9.978,0-18.101-9.164-18.101-20.422c0-10.854,8.281-20.03,18.101-20.03
			c10.152,0,18.1,8.797,18.1,20.03C-13918.117,3173.169-13926.064,3182.14-13936.217,3182.14z M-13936.217,3149.398
			c-5.639,0-10.404,5.639-10.404,12.32c0,6.894,4.766,12.712,10.404,12.712c5.837,0,10.403-5.579,10.403-12.712
			C-13925.813,3154.805-13930.38,3149.398-13936.217,3149.398z"/>
	</g>
	<g>
		<path style="fill:#020000;" d="M-13885.765,3205.633c-10.193,0-18.499-8.989-18.499-20.03c0-11.258,8.306-20.421,18.499-20.421
			c9.977,0,18.1,9.164,18.1,20.421C-13867.665,3196.457-13875.947,3205.633-13885.765,3205.633z M-13885.765,3172.891
			c-5.944,0-10.775,5.698-10.775,12.711c0,6.794,4.831,12.32,10.775,12.32c5.641,0,10.403-5.639,10.403-12.32
			C-13875.361,3178.71-13880.124,3172.891-13885.765,3172.891z"/>
	</g>
	<g>
		<path style="fill:#020000;" d="M-13833.378,3222.193c-10.19,0-18.496-9.162-18.496-20.415c0-11.04,8.306-20.031,18.496-20.031
			c9.82,0,18.103,9.177,18.103,20.031C-13815.275,3213.031-13823.398,3222.193-13833.378,3222.193z M-13833.378,3189.458
			c-5.942,0-10.773,5.528-10.773,12.321c0,7.008,4.831,12.707,10.773,12.707c5.642,0,10.406-5.819,10.406-12.707
			C-13822.972,3195.097-13827.736,3189.458-13833.378,3189.458z"/>
	</g>
	<g>
		<path style="fill:#020000;" d="M-13793.327,3242.61c-10.192,0-18.486-8.991-18.486-20.03c0-11.26,8.294-20.422,18.486-20.422
			c9.989,0,18.111,9.162,18.111,20.422C-13775.216,3233.434-13783.508,3242.61-13793.327,3242.61z M-13793.327,3209.867
			c-5.946,0-10.776,5.699-10.776,12.712c0,6.794,4.83,12.32,10.776,12.32c5.651,0,10.401-5.641,10.401-12.32
			C-13782.926,3215.685-13787.676,3209.867-13793.327,3209.867z"/>
	</g>
	<g>
		<path style="fill:#020000;" d="M-13965.888,3235.676c-10.005,0-18.483-9.349-18.483-20.415c0-11.252,8.293-20.414,18.483-20.414
			c9.992,0,18.113,9.162,18.113,20.414C-13947.774,3226.327-13956.067,3235.676-13965.888,3235.676z M-13965.888,3202.557
			c-5.946,0-10.776,5.696-10.776,12.704c0,6.888,4.938,12.705,10.776,12.705c5.547,0,10.403-5.938,10.403-12.705
			C-13955.484,3208.373-13960.235,3202.557-13965.888,3202.557z"/>
	</g>
	<g>
		<path style="fill:#020000;" d="M-13915.806,3259.171c-9.979,0-18.103-9.163-18.103-20.417c0-10.854,8.282-20.03,18.103-20.03
			c10.189,0,18.496,8.991,18.496,20.03C-13897.31,3250.008-13905.616,3259.171-13915.806,3259.171z M-13915.806,3226.433
			c-5.644,0-10.406,5.641-10.406,12.321c0,6.887,4.763,12.707,10.406,12.707c5.941,0,10.772-5.7,10.772-12.707
			C-13905.033,3231.96-13909.864,3226.433-13915.806,3226.433z"/>
	</g>
	<g>
		<path style="fill:#020000;" d="M-13863.421,3275.737c-9.815,0-18.098-9.354-18.098-20.42c0-11.254,8.12-20.417,18.098-20.417
			c10.191,0,18.501,9.163,18.501,20.417C-13844.92,3266.382-13853.398,3275.737-13863.421,3275.737z M-13863.421,3242.61
			c-5.639,0-10.401,5.819-10.401,12.707c0,6.772,4.855,12.711,10.401,12.711c5.841,0,10.777-5.818,10.777-12.711
			C-13852.644,3248.308-13857.475,3242.61-13863.421,3242.61z"/>
	</g>
	<g>
		<path style="fill:#020000;" d="M-13823.37,3296.146c-9.979,0-18.102-9.163-18.102-20.416c0-10.854,8.295-20.03,18.102-20.03
			c10.205,0,18.496,8.989,18.496,20.03C-13804.874,3286.984-13813.165,3296.146-13823.37,3296.146z M-13823.37,3263.411
			c-5.629,0-10.392,5.639-10.392,12.32c0,6.888,4.763,12.705,10.392,12.705c5.944,0,10.786-5.698,10.786-12.705
			C-13812.584,3268.937-13817.426,3263.411-13823.37,3263.411z"/>
	</g>
	<g>
		<path style="fill:#020000;" d="M-13991.683,3283.825c-9.979,0-18.101-9.162-18.101-20.423c0-10.854,8.28-20.031,18.101-20.031
			c10.149,0,18.099,8.799,18.099,20.031C-13973.584,3274.856-13981.533,3283.825-13991.683,3283.825z M-13991.683,3251.081
			c-5.642,0-10.405,5.641-10.405,12.321c0,6.895,4.764,12.713,10.405,12.713c5.837,0,10.403-5.58,10.403-12.713
			C-13981.279,3256.49-13985.846,3251.081-13991.683,3251.081z"/>
	</g>
	<g>
		<path style="fill:#020000;" d="M-13941.233,3307.32c-10.19,0-18.483-8.991-18.483-20.031c0-11.252,8.293-20.417,18.483-20.417
			c9.992,0,18.113,9.164,18.113,20.417C-13923.12,3298.143-13931.413,3307.32-13941.233,3307.32z M-13941.233,3274.582
			c-5.942,0-10.773,5.701-10.773,12.707c0,6.794,4.831,12.321,10.773,12.321c5.653,0,10.406-5.641,10.406-12.321
			C-13930.827,3280.403-13935.58,3274.582-13941.233,3274.582z"/>
	</g>
	<g>
		<path style="fill:#020000;" d="M-13888.844,3323.881c-10.19,0-18.497-9.164-18.497-20.417c0-11.039,8.307-20.03,18.497-20.03
			c9.82,0,18.098,9.176,18.098,20.03C-13870.746,3314.717-13878.865,3323.881-13888.844,3323.881z M-13888.844,3291.143
			c-5.945,0-10.776,5.527-10.776,12.321c0,7.006,4.831,12.707,10.776,12.707c5.639,0,10.403-5.82,10.403-12.707
			C-13878.44,3296.782-13883.205,3291.143-13888.844,3291.143z"/>
	</g>
	<g>
		<path style="fill:#020000;" d="M-13848.783,3344.295c-10.205,0-18.483-8.991-18.483-20.03c0-11.252,8.278-20.416,18.483-20.416
			c9.993,0,18.112,9.164,18.112,20.416C-13830.671,3335.119-13838.978,3344.295-13848.783,3344.295z M-13848.783,3311.559
			c-5.943,0-10.788,5.699-10.788,12.706c0,6.793,4.845,12.32,10.788,12.32c5.642,0,10.392-5.639,10.392-12.32
			C-13838.392,3317.377-13843.142,3311.559-13848.783,3311.559z"/>
	</g>
	<g>
		<path style="fill:#020000;" d="M-14007.092,3334.283c-9.806,0-18.111-9.349-18.111-20.415c0-11.26,8.121-20.423,18.111-20.423
			c10.153,0,18.115,8.971,18.115,20.423C-13988.977,3325.121-13997.098,3334.283-14007.092,3334.283z M-14007.092,3301.155
			c-5.639,0-10.389,5.82-10.389,12.713c0,6.768,4.856,12.705,10.389,12.705c5.733,0,10.393-5.699,10.393-12.705
			C-13996.699,3306.735-14001.266,3301.155-14007.092,3301.155z"/>
	</g>
	<g>
		<path style="fill:#020000;" d="M-13956.625,3357.778c-10.205,0-18.497-9.163-18.497-20.415c0-11.049,8.292-20.038,18.497-20.038
			c9.807,0,18.098,9.176,18.098,20.038C-13938.527,3348.615-13946.646,3357.778-13956.625,3357.778z M-13956.625,3325.034
			c-5.945,0-10.787,5.527-10.787,12.328c0,7.005,4.842,12.705,10.787,12.705c5.625,0,10.391-5.819,10.391-12.705
			C-13946.234,3330.681-13951,3325.034-13956.625,3325.034z"/>
	</g>
	<g>
		<path style="fill:#020000;" d="M-13904.251,3374.338c-10.018,0-18.481-9.349-18.481-20.415c0-11.252,8.278-20.416,18.481-20.416
			c9.994,0,18.113,9.164,18.113,20.416C-13886.138,3364.989-13894.444,3374.338-13904.251,3374.338z M-13904.251,3341.217
			c-5.944,0-10.786,5.698-10.786,12.706c0,6.886,4.937,12.705,10.786,12.705c5.533,0,10.393-5.938,10.393-12.705
			C-13893.858,3347.035-13898.61,3341.217-13904.251,3341.217z"/>
	</g>
	<g>
		<path style="fill:#020000;" d="M-13864.189,3394.753c-10.19,0-18.497-9.162-18.497-20.415c0-11.041,8.307-20.03,18.497-20.03
			c9.82,0,18.101,9.176,18.101,20.03C-13846.089,3385.591-13854.211,3394.753-13864.189,3394.753z M-13864.189,3362.018
			c-5.945,0-10.773,5.526-10.773,12.32c0,7.006,4.828,12.705,10.773,12.705c5.639,0,10.405-5.818,10.405-12.705
			C-13853.784,3367.656-13858.551,3362.018-13864.189,3362.018z"/>
	</g>
	<g>
		<path style="fill:#020000;" d="M-14034.823,3383.587c-9.807,0-18.112-9.355-18.112-20.422c0-11.253,8.12-20.417,18.112-20.417
			c10.152,0,18.113,8.971,18.113,20.417C-14016.71,3374.425-14024.83,3383.587-14034.823,3383.587z M-14034.823,3350.458
			c-5.639,0-10.391,5.821-10.391,12.707c0,6.774,4.857,12.711,10.391,12.711c5.731,0,10.389-5.699,10.389-12.711
			C-14024.435,3356.039-14028.997,3350.458-14034.823,3350.458z"/>
	</g>
	<g>
		<path style="fill:#020000;" d="M-13984.36,3407.08c-10.204,0-18.497-9.163-18.497-20.415c0-11.048,8.293-20.037,18.497-20.037
			c9.807,0,18.103,9.176,18.103,20.037C-13966.258,3397.918-13974.381,3407.08-13984.36,3407.08z M-13984.36,3374.338
			c-5.942,0-10.787,5.527-10.787,12.327c0,7.006,4.845,12.707,10.787,12.707c5.628,0,10.393-5.82,10.393-12.707
			C-13973.968,3379.984-13978.732,3374.338-13984.36,3374.338z"/>
	</g>
	<g>
		<path style="fill:#020000;" d="M-13931.984,3423.642c-10.018,0-18.483-9.35-18.483-20.415c0-11.253,8.278-20.416,18.483-20.416
			c9.992,0,18.114,9.163,18.114,20.416C-13913.87,3414.292-13922.179,3423.642-13931.984,3423.642z M-13931.984,3390.521
			c-5.943,0-10.788,5.699-10.788,12.706c0,6.886,4.937,12.705,10.788,12.705c5.536,0,10.391-5.938,10.391-12.705
			C-13921.594,3396.339-13926.343,3390.521-13931.984,3390.521z"/>
	</g>
	<g>
		<path style="fill:#020000;" d="M-13891.921,3444.057c-10.194,0-18.501-9.162-18.501-20.415c0-11.048,8.307-20.039,18.501-20.039
			c9.816,0,18.099,9.175,18.099,20.039C-13873.822,3434.895-13881.943,3444.057-13891.921,3444.057z M-13891.921,3411.313
			c-5.946,0-10.775,5.527-10.775,12.329c0,7.007,4.829,12.705,10.775,12.705c5.639,0,10.402-5.819,10.402-12.705
			C-13881.519,3416.96-13886.282,3411.313-13891.921,3411.313z"/>
	</g>
	<g>
		<path style="fill:#020000;" d="M-12149.388,3462.933c-1.421,0-2.773-0.789-3.438-2.11l-157.923-311.227
			c-0.49-0.955-0.544-2.069-0.172-3.072c0.37-1,1.128-1.812,2.123-2.221l212.606-89.359c1.884-0.797,4.059,0.027,4.962,1.858
			c15.871,32.438,155.098,317.257,158.174,328.458c1.115,4.06,4.089,14.842-215.284,77.521
			C-12148.686,3462.88-12149.03,3462.933-12149.388,3462.933z M-12302.004,3149.802l154.618,304.698
			c75.625-21.676,193.844-58.087,206.397-68.538c-8.481-20.913-112.806-235.052-155.575-322.506L-12302.004,3149.802z"/>
	</g>
	<g>
		<path style="fill:#020000;" d="M-12158.64,3430.19c-1.591,0-3.076-1.001-3.634-2.594c-0.691-2.012,0.37-4.208,2.375-4.903
			l190.288-65.865c2.003-0.683,4.205,0.373,4.896,2.383c0.688,2.01-0.373,4.205-2.378,4.903l-190.285,65.863
			C-12157.789,3430.117-12158.213,3430.19-12158.64,3430.19z"/>
	</g>
	<g>
		<path style="fill:#020000;" d="M-12111.253,3135.53c-9.807,0-18.113-9.349-18.113-20.415c0-11.253,8.123-20.415,18.113-20.415
			c10.151,0,18.115,8.97,18.115,20.415C-12093.138,3126.368-12101.261,3135.53-12111.253,3135.53z M-12111.253,3102.409
			c-5.64,0-10.389,5.819-10.389,12.707c0,6.768,4.855,12.705,10.389,12.705c5.733,0,10.391-5.698,10.391-12.705
			C-12100.862,3107.989-12105.428,3102.409-12111.253,3102.409z"/>
	</g>
	<g>
		<path style="fill:#020000;" d="M-12161.716,3159.024c-9.979,0-18.103-9.162-18.103-20.415c0-10.855,8.282-20.031,18.103-20.031
			c10.19,0,18.497,8.991,18.497,20.031C-12143.219,3149.862-12151.525,3159.024-12161.716,3159.024z M-12161.716,3126.287
			c-5.639,0-10.403,5.64-10.403,12.321c0,6.887,4.765,12.707,10.403,12.707c5.944,0,10.776-5.7,10.776-12.707
			C-12150.939,3131.815-12155.771,3126.287-12161.716,3126.287z"/>
	</g>
	<g>
		<path style="fill:#020000;" d="M-12214.105,3175.59c-9.82,0-18.099-9.354-18.099-20.421c0-11.251,8.119-20.415,18.099-20.415
			c10.19,0,18.497,9.163,18.497,20.415C-12195.608,3166.237-12204.088,3175.59-12214.105,3175.59z M-12214.105,3142.462
			c-5.639,0-10.403,5.82-10.403,12.707c0,6.775,4.855,12.711,10.403,12.711c5.84,0,10.776-5.816,10.776-12.711
			C-12203.329,3148.163-12208.16,3142.462-12214.105,3142.462z"/>
	</g>
	<g>
		<path style="fill:#020000;" d="M-12254.153,3196.006c-9.978,0-18.101-9.162-18.101-20.421c0-10.854,8.281-20.031,18.101-20.031
			c10.192,0,18.498,8.99,18.498,20.031C-12235.655,3186.844-12243.961,3196.006-12254.153,3196.006z M-12254.153,3163.263
			c-5.641,0-10.404,5.641-10.404,12.322c0,6.893,4.764,12.712,10.404,12.712c5.944,0,10.773-5.699,10.773-12.712
			C-12243.38,3168.789-12248.209,3163.263-12254.153,3163.263z"/>
	</g>
	<g>
		<path style="fill:#020000;" d="M-12081.596,3188.689c-9.817,0-18.098-9.177-18.098-20.037c0-11.253,8.119-20.417,18.098-20.417
			c10.19,0,18.501,9.164,18.501,20.417C-12063.095,3179.698-12071.405,3188.689-12081.596,3188.689z M-12081.596,3155.945
			c-5.639,0-10.402,5.821-10.402,12.707c0,6.68,4.764,12.327,10.402,12.327c5.946,0,10.776-5.527,10.776-12.327
			C-12070.819,3161.645-12075.649,3155.945-12081.596,3155.945z"/>
	</g>
	<g>
		<path style="fill:#020000;" d="M-12131.674,3212.567c-10.019,0-18.497-9.347-18.497-20.415c0-11.261,8.307-20.423,18.497-20.423
			c9.979,0,18.1,9.162,18.1,20.423C-12113.574,3203.22-12121.854,3212.567-12131.674,3212.567z M-12131.674,3179.44
			c-5.945,0-10.776,5.699-10.776,12.713c0,6.886,4.937,12.706,10.776,12.706c5.548,0,10.402-5.94,10.402-12.706
			C-12121.271,3185.258-12126.035,3179.44-12131.674,3179.44z"/>
	</g>
	<g>
		<path style="fill:#020000;" d="M-12184.049,3228.744c-10.205,0-18.486-8.991-18.486-20.032c0-11.253,8.281-20.415,18.486-20.415
			c9.992,0,18.113,9.162,18.113,20.415C-12165.936,3219.568-12174.244,3228.744-12184.049,3228.744z M-12184.049,3196.006
			c-5.946,0-10.791,5.7-10.791,12.706c0,6.795,4.845,12.322,10.791,12.322c5.639,0,10.388-5.641,10.388-12.322
			C-12173.661,3201.826-12178.41,3196.006-12184.049,3196.006z"/>
	</g>
	<g>
		<path style="fill:#020000;" d="M-12224.11,3249.543c-10.021,0-18.499-9.349-18.499-20.415c0-11.26,8.31-20.423,18.499-20.423
			c9.979,0,18.099,9.164,18.099,20.423C-12206.012,3240.195-12214.293,3249.543-12224.11,3249.543z M-12224.11,3216.415
			c-5.944,0-10.775,5.7-10.775,12.713c0,6.887,4.937,12.705,10.775,12.705c5.548,0,10.403-5.937,10.403-12.705
			C-12213.707,3222.236-12218.471,3216.415-12224.11,3216.415z"/>
	</g>
	<g>
		<path style="fill:#020000;" d="M-12055.798,3237.215c-9.82,0-18.101-9.348-18.101-20.415c0-11.253,8.121-20.416,18.101-20.416
			c10.151,0,18.099,8.971,18.099,20.416C-12037.699,3228.052-12045.818,3237.215-12055.798,3237.215z M-12055.798,3204.094
			c-5.639,0-10.403,5.819-10.403,12.706c0,6.767,4.856,12.706,10.403,12.706c5.731,0,10.403-5.699,10.403-12.706
			C-12045.395,3209.676-12049.959,3204.094-12055.798,3204.094z"/>
	</g>
	<g>
		<path style="fill:#020000;" d="M-12106.25,3260.716c-9.979,0-18.098-9.163-18.098-20.421c0-10.854,8.278-20.031,18.098-20.031
			c10.19,0,18.497,8.99,18.497,20.031C-12087.753,3251.553-12096.06,3260.716-12106.25,3260.716z M-12106.25,3227.973
			c-5.639,0-10.402,5.64-10.402,12.322c0,6.893,4.764,12.712,10.402,12.712c5.945,0,10.776-5.699,10.776-12.712
			C-12095.474,3233.499-12100.305,3227.973-12106.25,3227.973z"/>
	</g>
	<g>
		<path style="fill:#020000;" d="M-12158.64,3277.277c-9.816,0-18.098-9.348-18.098-20.415c0-11.26,8.119-20.422,18.098-20.422
			c10.193,0,18.5,9.162,18.5,20.422C-12140.14,3267.929-12148.618,3277.277-12158.64,3277.277z M-12158.64,3244.15
			c-5.639,0-10.402,5.817-10.402,12.712c0,6.766,4.856,12.706,10.402,12.706c5.84,0,10.776-5.819,10.776-12.706
			C-12147.863,3249.849-12152.694,3244.15-12158.64,3244.15z"/>
	</g>
	<g>
		<path style="fill:#020000;" d="M-12198.686,3297.693c-9.979,0-18.103-9.164-18.103-20.423c0-10.854,8.282-20.03,18.103-20.03
			c10.19,0,18.497,8.989,18.497,20.03C-12180.188,3288.53-12188.495,3297.693-12198.686,3297.693z M-12198.686,3264.949
			c-5.639,0-10.402,5.639-10.402,12.32c0,6.893,4.764,12.713,10.402,12.713c5.945,0,10.776-5.7,10.776-12.713
			C-12187.909,3270.477-12192.74,3264.949-12198.686,3264.949z"/>
	</g>
	<g>
		<path style="fill:#020000;" d="M-12040.378,3287.289c-9.82,0-18.101-9.176-18.101-20.032c0-11.252,8.121-20.415,18.101-20.415
			c10.151,0,18.099,8.971,18.099,20.415C-12022.279,3278.49-12030.227,3287.289-12040.378,3287.289z M-12040.378,3254.552
			c-5.642,0-10.405,5.819-10.405,12.705c0,6.682,4.764,12.322,10.405,12.322c5.837,0,10.403-5.408,10.403-12.322
			C-12029.975,3260.133-12034.541,3254.552-12040.378,3254.552z"/>
	</g>
	<g>
		<path style="fill:#020000;" d="M-12090.845,3311.174c-9.805,0-18.111-9.355-18.111-20.422c0-11.252,8.119-20.414,18.111-20.414
			c10.205,0,18.486,9.162,18.486,20.414C-12072.358,3301.819-12080.826,3311.174-12090.845,3311.174z M-12090.845,3278.047
			c-5.639,0-10.388,5.817-10.388,12.705c0,6.774,4.856,12.712,10.388,12.712c5.854,0,10.791-5.819,10.791-12.712
			C-12080.054,3283.745-12084.898,3278.047-12090.845,3278.047z"/>
	</g>
	<g>
		<path style="fill:#020000;" d="M-12143.232,3327.35c-9.807,0-18.113-9.176-18.113-20.03c0-11.26,8.122-20.423,18.113-20.423
			c10.203,0,18.486,9.163,18.486,20.423C-12124.746,3318.359-12133.029,3327.35-12143.232,3327.35z M-12143.232,3294.607
			c-5.641,0-10.39,5.819-10.39,12.712c0,6.682,4.749,12.321,10.39,12.321c5.944,0,10.789-5.527,10.789-12.321
			C-12132.443,3300.306-12137.288,3294.607-12143.232,3294.607z"/>
	</g>
	<g>
		<path style="fill:#020000;" d="M-12183.28,3348.151c-9.805,0-18.111-9.356-18.111-20.424c0-11.252,8.119-20.414,18.111-20.414
			c10.205,0,18.483,9.162,18.483,20.414C-12164.797,3338.794-12173.263,3348.151-12183.28,3348.151z M-12183.28,3315.023
			c-5.639,0-10.391,5.818-10.391,12.704c0,6.775,4.857,12.714,10.391,12.714c5.852,0,10.788-5.819,10.788-12.714
			C-12172.492,3320.723-12177.334,3315.023-12183.28,3315.023z"/>
	</g>
	<g>
		<path style="fill:#020000;" d="M-12012.657,3336.591c-9.806,0-18.116-9.174-18.116-20.03c0-11.252,8.123-20.415,18.116-20.415
			c10.148,0,18.112,8.969,18.112,20.415C-11994.545,3327.794-12002.509,3336.591-12012.657,3336.591z M-12012.657,3303.856
			c-5.642,0-10.392,5.819-10.392,12.705c0,6.681,4.75,12.321,10.392,12.321c5.823,0,10.388-5.407,10.388-12.321
			C-12002.27,3309.436-12006.834,3303.856-12012.657,3303.856z"/>
	</g>
	<g>
		<path style="fill:#020000;" d="M-12063.109,3360.471c-9.806,0-18.113-9.35-18.113-20.415c0-11.253,8.121-20.415,18.113-20.415
			c10.205,0,18.483,9.162,18.483,20.415C-12044.626,3351.121-12053.092,3360.471-12063.109,3360.471z M-12063.109,3327.35
			c-5.639,0-10.391,5.818-10.391,12.706c0,6.768,4.857,12.705,10.391,12.705c5.852,0,10.787-5.818,10.787-12.705
			C-12052.322,3333.049-12057.163,3327.35-12063.109,3327.35z"/>
	</g>
	<g>
		<path style="fill:#020000;" d="M-12115.499,3376.653c-9.805,0-18.111-9.176-18.111-20.037c0-11.253,8.119-20.415,18.111-20.415
			c10.205,0,18.486,9.162,18.486,20.415C-12097.013,3367.662-12105.294,3376.653-12115.499,3376.653z M-12115.499,3343.911
			c-5.639,0-10.391,5.817-10.391,12.705c0,6.682,4.752,12.329,10.391,12.329c5.946,0,10.788-5.528,10.788-12.329
			C-12104.711,3349.609-12109.553,3343.911-12115.499,3343.911z"/>
	</g>
	<g>
		<path style="fill:#020000;" d="M-12155.559,3397.453c-9.807,0-18.103-9.355-18.103-20.423c0-11.252,8.124-20.415,18.103-20.415
			c10.204,0,18.497,9.162,18.497,20.415C-12137.062,3388.098-12145.527,3397.453-12155.559,3397.453z M-12155.559,3364.326
			c-5.628,0-10.377,5.819-10.377,12.705c0,6.775,4.844,12.713,10.377,12.713c5.851,0,10.801-5.819,10.801-12.713
			C-12144.758,3370.026-12149.613,3364.326-12155.559,3364.326z"/>
	</g>
	<g>
		<path style="fill:#020000;" d="M-12080.427,4211.329c-0.079,0-0.159-0.006-0.238-0.006c-2.123-0.127-3.742-1.944-3.623-4.066
			l45.064-780.37c0.12-2.129,2.215-3.596,4.072-3.629c2.124,0.125,3.743,1.943,3.624,4.068l-45.064,780.369
			C-12076.712,4209.742-12078.409,4211.329-12080.427,4211.329z"/>
	</g>
	<g>
		<path style="fill:#020000;" d="M-13481.704,4496.738h-87.832c-1.923,0-3.462-1.544-3.462-3.461v-112.476
			c0-1.917,1.539-3.465,3.462-3.465h191.813c1.927,0,3.479,1.548,3.479,3.465s-1.553,3.466-3.479,3.466h-188.348v105.543h84.367
			c1.912,0,3.45,1.549,3.45,3.467C-13478.254,4495.194-13479.792,4496.738-13481.704,4496.738z"/>
	</g>
	<g>
		<path style="fill:#020000;" d="M-13180.509,5032.516c-1.381,0-2.654-0.836-3.185-2.124c-0.545-1.289-0.267-2.778,0.717-3.774
			c0,0,78.968-80.123,253.835-257.301c75.717-76.479,120.436-133.226,124.96-196.948c2.987-48.878-15.499-98.566-49.469-132.895
			c-1.34-1.36-1.326-3.552,0.025-4.898c1.354-1.352,3.557-1.352,4.911,0.028c35.325,35.7,54.563,87.373,51.459,138.225
			c-4.697,65.895-50.107,123.731-126.964,201.364c-147.56,149.512-226.819,229.906-247.984,251.369l375.028-1.121l2.534-110.225
			l-71.232-1.103c-1.923-0.026-3.437-1.604-3.408-3.517c0.025-1.91,1.965-3.482,3.515-3.41l74.722,1.156
			c0.931,0.013,1.806,0.393,2.441,1.061c0.639,0.664,0.996,1.559,0.971,2.48l-2.695,117.094c-0.039,1.877-1.564,3.384-3.449,3.384
			l-386.704,1.154C-13180.496,5032.516-13180.509,5032.516-13180.509,5032.516z M-13334.568,5032.131
			c-1.912,0-3.465-1.537-3.479-3.449l-2.308-647.867c0-0.922,0.37-1.805,1.009-2.46c0.664-0.649,1.538-1.018,2.468-1.018h225.703
			c0.981,0,1.923,0.419,2.59,1.15l23.486,26.195c1.127,1.26,1.193,3.158,0.131,4.477c-0.304,0.379-0.663,0.678-1.072,0.89
			c-3.2,2.19-106.172,76.653-85.312,165.233c5.466,23.66,17.861,39.026,35.854,44.461c19.611,5.963,43.804-1.055,61.585-17.836
			c18.14-17.108,25.356-40.127,19.838-63.143l-2.521-10.494c-12.275-50.803-26.196-108.383,14.888-133.11
			c1.645-0.971,3.77-0.452,4.764,1.188c0.982,1.639,0.466,3.768-1.182,4.758c-36.73,22.102-24.017,74.68-11.729,125.531l2.52,10.516
			c6.133,25.49-1.831,50.936-21.814,69.797c-19.559,18.453-46.39,26.076-68.365,19.434c-14.292-4.316-32.935-16.421-40.591-49.521
			c-18.751-79.577,55.612-146.795,78.833-165.499c2.734-2.191,4.777-3.816,6.373-5.004l-19.827-22.092h-220.674l2.28,644.386
			C-13331.106,5030.57-13332.659,5032.123-13334.568,5032.131L-13334.568,5032.131z"/>
	</g>
	<g>
		<path style="fill:#020000;" d="M-12553.054,5032.516c-103.012,0-186.81-83.627-186.81-186.428c0-1.917,1.554-3.459,3.463-3.459
			c1.912,0,3.465,1.542,3.465,3.459c0,98.974,80.691,179.502,179.882,179.502c98.98,0,179.5-80.528,179.5-179.502v-287.726
			c0-99.18-80.52-179.881-179.5-179.881c-1.924,0-3.462-1.547-3.462-3.463c0-1.918,1.538-3.464,3.462-3.464
			c102.802,0,186.427,83.796,186.427,186.808v287.726C-12366.627,4948.889-12450.252,5032.516-12553.054,5032.516z"/>
	</g>
	<g>
		<path style="fill:#020000;" d="M-12554.207,5022.498c-41.202,0-74.723-33.521-74.723-74.725v-383.625
			c0-1.918,1.553-3.461,3.465-3.461c1.909,0,3.462,1.543,3.462,3.461v383.625c0,37.383,30.416,67.796,67.796,67.796
			c1.912,0,3.464,1.546,3.464,3.464S-12552.295,5022.498-12554.207,5022.498z"/>
	</g>
	<g>
		<path style="fill:#020000;" d="M-13387.729,5225.873c-0.026,0-0.052-0.006-0.08-0.006c-1.673-0.027-3.144-1.154-3.61-2.773
			l-38.905-133.652c-0.611-2.041,0.571-4.18,2.614-4.77c2.071-0.617,4.181,0.576,4.764,2.622l35.459,121.802l41.93-125.799
			c0.53-1.57,2.005-2.63,3.663-2.63c0.015,0,0.025,0,0.04,0c1.671,0.019,3.144,1.114,3.637,2.706l38.401,123.232l32.39-121.535
			c0.545-2.053,2.668-3.246,4.711-2.734c2.058,0.551,3.278,2.66,2.734,4.711l-35.815,134.422c-0.45,1.658-1.936,2.826-3.647,2.86
			c-1.525,0.119-3.251-1.062-3.755-2.702l-38.829-124.555l-42.036,126.169
			C-13384.598,5224.814-13386.068,5225.873-13387.729,5225.873z"/>
	</g>
	<g>
		<path style="fill:#020000;" d="M-13194.362,5225.103c-36.969,0-67.038-32.484-67.038-72.405c0-39.715,30.069-72.03,67.038-72.03
			c36.729,0,66.628,32.315,66.628,72.03C-13127.734,5192.618-13157.634,5225.103-13194.362,5225.103z M-13194.362,5088.375
			c-32.724,0-59.315,28.854-59.315,64.322c0,35.677,26.592,64.695,59.315,64.695c32.483,0,58.918-29.018,58.918-64.695
			C-13135.444,5117.229-13161.879,5088.375-13194.362,5088.375z"/>
	</g>
	<g>
		<path style="fill:#020000;" d="M-12598.887,5222.412c-35.682,0-64.715-32.318-64.715-72.035c0-39.71,29.033-72.021,64.715-72.021
			c22.625,0,43.18,12.847,54.979,34.355c1.034,1.863,0.344,4.209-1.514,5.228c-1.871,1.03-4.206,0.347-5.229-1.526
			c-10.431-19.002-28.463-30.348-48.236-30.348c-31.434,0-57.02,28.847-57.02,64.313c0,35.469,25.586,64.324,57.02,64.324
			c21.778,0,41.39-14.012,51.154-36.586c0.85-1.956,3.104-2.845,5.07-2.003c1.938,0.851,2.84,3.11,1.989,5.07
			C-12551.671,5206.613-12573.979,5222.412-12598.887,5222.412z"/>
	</g>
	<g>
		<path style="fill:#020000;" d="M-12805.35,5225.873h-50.449c-2.124,0-3.851-1.723-3.851-3.853v-132.114
			c0-2.13,1.727-3.855,3.851-3.855h50.449c29.646,0,54.699,25.054,54.699,54.706v30.427
			C-12750.65,5200.829-12775.703,5225.873-12805.35,5225.873z M-12851.952,5218.163h46.603c25.479,0,47-21.509,47-46.979v-30.427
			c0-25.477-21.521-46.997-47-46.997h-46.603V5218.163z"/>
	</g>
	<g>
		<path style="fill:#020000;" d="M-12953.637,5222.795c-1.023,0-1.99-0.404-2.707-1.115c-0.729-0.721-1.153-1.711-1.153-2.738
			V5083.75c0-2.13,1.722-3.853,3.86-3.853c2.135,0,3.86,1.723,3.86,3.853v131.297l70.436-0.73c0.013,0,0.026,0,0.041,0
			c2.11,0,3.835,1.7,3.86,3.816c0.014,2.129-1.696,3.865-3.821,3.893l-74.338,0.77
			C-12953.611,5222.795-12953.624,5222.795-12953.637,5222.795z"/>
	</g>
	<g>
		<path style="fill:#020000;" d="M-13002.55,5227.413c-1.539,0-2.985-0.928-3.597-2.454c-11.542-29.538-32.591-51.414-64.344-66.873
			c-1.605-0.783-2.467-2.582-2.068-4.325c0.409-1.752,1.963-2.993,3.755-2.993h35.057c16.56,0,30.043-13.303,30.043-29.662
			c0-16.284-13.762-30.037-30.043-30.037h-57.802l-0.742,129.814c-0.028,2.125-1.753,3.836-3.863,3.836c-0.013,0-0.013,0-0.013,0
			c-2.136-0.011-3.848-1.75-3.848-3.873l0.77-133.65c0.025-2.125,1.75-3.837,3.86-3.837h61.638
			c20.463,0,37.738,17.283,37.738,37.747c0,20.605-16.931,37.373-37.738,37.373h-19.863c26.155,15.73,44.094,36.678,54.656,63.682
			c0.771,1.976-0.213,4.211-2.202,4.988C-13001.608,5227.329-13002.084,5227.413-13002.55,5227.413z"/>
	</g>
	<g>
		<path style="fill:#020000;" d="M-12461.384,5223.564c-27.827,0-50.467-22.809-50.467-50.842v-87.051
			c0-2.131,1.725-3.853,3.86-3.853c2.139,0,3.863,1.722,3.863,3.853v87.051c0,23.788,19.161,43.133,42.743,43.133
			c23.789,0,43.138-19.345,43.138-43.133v-87.051c0-2.131,1.725-3.853,3.863-3.853c2.135,0,3.86,1.722,3.86,3.853v87.051
			C-12410.522,5200.756-12433.347,5223.564-12461.384,5223.564z"/>
	</g>
	<g>
		<path style="fill:#020000;" d="M-12312.314,5164.25h-58.931c-2.121,0-3.848-1.722-3.848-3.853c0-2.13,1.727-3.857,3.848-3.857
			h58.931c15.512,0,28.12-14.682,28.12-32.73c0-17.838-12.608-32.356-28.12-32.356h-58.931c-2.121,0-3.848-1.725-3.848-3.853
			c0-2.13,1.727-3.857,3.848-3.857h58.931c19.76,0,35.815,17.975,35.815,40.066
			C-12276.499,5146.112-12292.555,5164.25-12312.314,5164.25z"/>
	</g>
	<g>
		<path style="fill:#020000;" d="M-12372.413,5226.642c-2.122,0-3.847-1.722-3.847-3.853v-135.19c0-2.13,1.725-3.857,3.847-3.857
			c2.124,0,3.849,1.727,3.849,3.857v135.19C-12368.564,5224.92-12370.289,5226.642-12372.413,5226.642z"/>
	</g>
	<g>
		<path style="fill:#020000;" d="M-13824.14,4415.084c-16.401,0-29.273-12.866-29.273-29.279c0-16.136,13.137-29.267,29.273-29.267
			c15.868,0,29.284,13.4,29.284,29.267C-13794.855,4401.947-13807.992,4415.084-13824.14,4415.084z M-13824.14,4364.248
			c-11.891,0-21.553,9.666-21.553,21.557c0,12.095,9.464,21.568,21.553,21.568c11.902,0,21.574-9.671,21.574-21.568
			C-13802.565,4374.121-13812.436,4364.248-13824.14,4364.248z"/>
	</g>
	<g>
		<path style="fill:#020000;" d="M-12254.922,4599.201c-9.29,0-16.563-7.279-16.563-16.565c0-9.138,7.433-16.569,16.563-16.569
			c9.129,0,16.561,7.432,16.561,16.569C-12238.361,4591.922-12245.634,4599.201-12254.922,4599.201z M-12254.922,4573.775
			c-4.806,0-8.866,4.055-8.866,8.86c0,4.966,3.901,8.854,8.866,8.854c4.962,0,8.864-3.889,8.864-8.854
			C-12246.058,4577.83-12250.119,4573.775-12254.922,4573.775z"/>
	</g>
	<g>
		<path style="fill:#020000;" d="M-13424.696,4797.568c-9.29,0-16.574-7.277-16.574-16.564c0-9.138,7.431-16.569,16.574-16.569
			c9.273,0,16.56,7.279,16.56,16.569C-13408.137,4790.444-13415.262,4797.568-13424.696,4797.568z M-13424.696,4772.145
			c-4.803,0-8.864,4.054-8.864,8.859c0,4.967,3.889,8.855,8.864,8.855c5.2,0,8.836-3.643,8.836-8.855
			C-13415.86,4776.033-13419.735,4772.145-13424.696,4772.145z"/>
	</g>
	<g>
		<path style="fill:#020000;" d="M-11475.263,4478.102l-0.917-90.831l79.101,44.281l-39.33,23.063L-11475.263,4478.102z
			 M-11468.322,4400.528l0.621,63.999l55.096-32.802L-11468.322,4400.528z"/>
	</g>
	<g>
		<path style="fill:#020000;" d="M-12233.439,5011.521L-12233.439,5011.521c-11.955,0-22.413-7.145-26.658-18.213
			c-2.894-7.053-2.84-14.846,0.188-21.873c3.076-7.104,8.782-12.553,16.055-15.338c3.397-1.396,7.032-2.125,10.734-2.125
			c11.824,0,22.227,7.212,26.5,18.373c2.76,7.215,2.614,15.032-0.398,22.014c-3.025,7.058-8.664,12.451-15.857,15.201
			C-12226.287,5010.866-12229.844,5011.521-12233.439,5011.521z M-12233.121,4960.905c-2.788,0-5.533,0.552-8.162,1.633
			c-5.61,2.149-9.938,6.269-12.259,11.644c-2.282,5.301-2.336,11.186-0.105,16.568c3.223,8.44,11.144,13.838,20.208,13.848l0,0
			c2.745,0,5.479-0.514,8.081-1.514c5.44-2.07,9.686-6.146,11.97-11.465c2.296-5.314,2.388-11.281,0.292-16.799
			C-12216.336,4966.37-12224.19,4960.905-12233.121,4960.905z"/>
	</g>
	<g>
		<path style="fill:#020000;" d="M-13162.781,3714.831c-9.778,0-14.542-6.144-18.762-11.57c-3.77-4.87-7.033-9.07-13.682-9.23
			c-6.33,0-9.674,4.086-13.549,8.817c-4.393,5.369-9.739,11.632-19.188,11.214c-9.647,0-14.41-6.076-18.604-11.445
			c-4.008-5.103-7.271-8.837-14.04-8.97c-6.182,0-9.234,3.75-13.109,8.465c-4.378,5.348-9.474,11.219-19.348,11.18
			c-9.633,0-14.41-6.078-18.603-11.445c-3.993-5.103-7.353-8.777-14.04-8.97c-6.186,0-9.238,3.74-13.099,8.464
			c-4.379,5.349-9.714,11.287-19.347,11.173c-9.7,0-14.449-6.13-18.643-11.544c-3.901-5.05-7.204-8.844-13.642-8.865
			c-6.475,0-9.607,3.869-13.563,8.747c-4.273,5.287-9.129,11.277-18.79,11.277c-10.004-0.225-14.82-6.427-19.068-11.895
			c-3.939-5.069-7.456-8.958-13.681-8.897c-6.476,0-9.606,3.867-13.547,8.745c-4.288,5.288-9.144,11.277-18.791,11.277
			c-10.021-0.225-14.823-6.427-19.067-11.902c-3.942-5.069-7.445-8.91-13.67-8.897c-6.263,0-9.408,3.841-13.374,8.679
			c-4.354,5.32-9.29,11.351-18.977,11.351c-9.767-0.226-14.598-6.369-18.843-11.791c-3.956-5.035-7.086-9.009-13.521-9.009
			c-6.461,0-9.647,3.867-13.695,8.758c-4.364,5.287-9.329,11.272-19.041,11.272v-6.926c6.448,0,9.659-3.87,13.692-8.759
			c4.379-5.288,9.316-11.272,19.044-11.272c9.805,0,14.675,6.191,18.962,11.65c3.794,4.83,7.059,8.995,13.483,9.149
			c6.315,0,9.658-4.086,13.532-8.816c4.407-5.37,9.715-11.407,19.189-11.214c9.713,0,14.478,6.15,18.684,11.578
			c3.782,4.862,7.032,9.063,13.681,9.221c6.276,0,9.382-3.848,13.31-8.717c4.38-5.414,9.513-11.611,19.428-11.306
			c9.701,0,14.464,6.143,18.684,11.572c3.77,4.861,7.034,9.062,13.667,9.221c6.277,0,9.394-3.847,13.324-8.712
			c4.379-5.42,9.326-11.684,19.426-11.312c9.714,0,14.464,6.131,18.645,11.543c3.899,5.052,7.297,8.74,13.627,8.864
			c6.448,0,9.581-3.822,13.508-8.638c4.302-5.274,9.183-11.589,18.924-11c9.938,0,14.782,6.178,19.056,11.624
			c3.835,4.91,6.873,8.792,13.215,8.792c7.127,0.092,9.9-3.729,13.909-8.638c4.298-5.268,9.553-11.367,18.921-11.007
			c9.94,0,14.782,6.176,19.043,11.624c3.833,4.91,6.885,8.79,13.229,8.79c6.808,0.087,9.715-3.749,13.749-8.678
			c4.351-5.322,9.286-11.353,18.987-11.353c10.018,0.226,14.837,6.429,19.082,11.903c3.86,4.969,6.898,8.897,13.282,8.897V3714.831z
			"/>
	</g>
	<g>
		<path style="fill:#020000;" d="M-11932.152,4035.678c-11.81,0-17.554-10.177-22.61-19.162
			c-5.495-9.733-8.998-15.492-16.613-15.498c-1.778,0.211-3.49-1.48-3.531-3.397c-0.039-1.911,1.488-3.498,3.397-3.529
			c12.262-0.432,17.703,9.998,22.771,19.021c4.739,8.387,8.825,15.637,16.587,15.637c7.792,0,11.878-7.304,16.613-15.749
			c5.07-9.05,10.829-19.302,22.679-19.302c11.838,0,17.583,10.137,22.65,19.082c4.752,8.36,8.839,15.585,16.641,15.585
			c7.247,0,11.041-5.944,16.401-15.731c4.989-9.056,10.617-19.321,22.494-19.321c11.85,0,17.594,10.145,22.676,19.096
			c4.725,8.353,8.811,15.571,16.616,15.571c7.787,0,11.873-7.305,16.612-15.751c5.067-9.049,10.829-19.301,22.678-19.301
			c1.925,0,3.462,1.547,3.462,3.465s-1.537,3.463-3.462,3.463c-7.79,0-11.891,7.305-16.626,15.765
			c-5.07,9.042-10.816,19.286-22.664,19.286c-11.838,0-17.584-10.137-22.654-19.081c-4.735-8.361-8.821-15.586-16.638-15.586
			c-7.246,0-11.029,5.946-16.415,15.733c-4.964,9.056-10.617,19.319-22.48,19.319c-11.85,0-17.594-10.144-22.664-19.093
			c-4.735-8.354-8.836-15.574-16.627-15.574c-7.788,0-11.888,7.306-16.627,15.765
			C-11914.555,4025.434-11920.302,4035.678-11932.152,4035.678z"/>
	</g>
	<g>
		<rect x="-12318.485" y="5305.988" style="fill:#020000;" width="7.696" height="8.095"/>
	</g>
	<g>
		<rect x="-12368.564" y="5305.988" style="fill:#020000;" width="7.725" height="8.095"/>
	</g>
	<g>
		<rect x="-12418.618" y="5305.988" style="fill:#020000;" width="7.697" height="8.095"/>
	</g>
	<g>
		<rect x="-12468.695" y="5305.988" style="fill:#020000;" width="7.695" height="8.095"/>
	</g>
	<g>
		<rect x="-12518.777" y="5305.988" style="fill:#020000;" width="7.724" height="8.095"/>
	</g>
	<g>
		<rect x="-12568.46" y="5305.988" style="fill:#020000;" width="7.699" height="8.095"/>
	</g>
	<g>
		<rect x="-12618.539" y="5305.988" style="fill:#020000;" width="7.725" height="8.095"/>
	</g>
	<g>
		<rect x="-12668.616" y="5305.988" style="fill:#020000;" width="7.721" height="8.095"/>
	</g>
	<g>
		<rect x="-12718.67" y="5305.988" style="fill:#020000;" width="7.695" height="8.095"/>
	</g>
	<g>
		<rect x="-12768.751" y="5305.988" style="fill:#020000;" width="7.695" height="8.095"/>
	</g>
	<g>
		<rect x="-12818.432" y="5305.988" style="fill:#020000;" width="7.697" height="8.095"/>
	</g>
	<g>
		<rect x="-12868.513" y="5305.988" style="fill:#020000;" width="7.696" height="8.095"/>
	</g>
	<g>
		<path style="fill:#020000;" d="M-14259.758,4067.652c-6.769,0-10.018-4.235-12.633-7.638c-2.442-3.158-3.967-4.949-7.152-5.076
			c-3.013,0-4.604,1.785-7.125,4.945c-2.72,3.403-6.078,7.609-12.899,7.383h-0.012c-6.569,0-9.939-4.206-12.646-7.584
			c-2.548-3.191-4.142-5.002-7.377-5.128c-3.067,0-4.659,1.766-7.193,4.884c-2.694,3.316-6.05,7.445-12.713,7.445
			c-6.714,0-9.965-4.287-12.579-7.73c-2.467-3.272-3.913-4.983-7.062-4.983c-3.264,0-4.907,1.812-7.562,5.003
			c-2.706,3.264-6.065,7.325-12.459,7.325c-6.69,0-10.046-4.253-12.728-7.671c-2.548-3.216-4.14-5.042-7.298-5.042
			c-3.211,0-4.803,1.765-7.325,4.883c-2.706,3.317-6.052,7.445-12.713,7.445c-6.765,0-10.096-4.32-12.778-7.796
			c-2.427-3.14-3.94-4.918-6.859-4.918c-3.238,0-4.911,1.787-7.564,4.937c-2.788,3.297-6.236,7.392-12.845,7.392
			c-6.476-0.253-9.701-4.359-12.287-7.657c-2.613-3.344-4.538-5.082-7.696-5.056c-3.027,0-4.513,1.638-6.982,4.691
			c-2.73,3.351-6.354,7.551-12.844,7.245c-0.015,0-0.015,0-0.015,0c-6.566,0-9.937-4.2-12.644-7.576
			c-2.548-3.191-4.142-5.004-7.377-5.128c-2.816,0-4.38,1.758-6.916,4.868c-2.799,3.423-6.275,7.638-13.109,7.451l0.265-6.927
			c3.317-0.033,4.845-1.685,7.471-4.908c2.694-3.306,6.051-7.412,12.421-7.412c6.689,0.251,10.006,4.393,12.66,7.722
			c2.652,3.292,4.457,5.036,7.71,4.99c3.038,0,4.51-1.646,6.993-4.698c2.706-3.343,5.932-7.517,12.83-7.245h0.015
			c6.634,0,9.979,4.273,12.686,7.704c2.441,3.118,3.966,4.891,6.954,5.01c3.105,0,4.75-1.786,7.417-4.937
			c2.773-3.291,6.235-7.392,12.858-7.392c6.476,0,9.725,4.22,12.341,7.61c2.521,3.259,4.1,5.104,7.297,5.104
			c3.21,0,4.806-1.772,7.324-4.89c2.707-3.311,6.052-7.438,12.714-7.438c6.688,0,10.032,4.253,12.739,7.677
			c2.521,3.21,4.114,5.037,7.286,5.037c2.984,0,4.577-1.745,7.124-4.816c2.76-3.353,6.211-7.513,12.896-7.513
			c6.743,0,9.979,4.287,12.595,7.729c2.48,3.273,3.915,4.985,7.046,4.985c3.212,0,4.803-1.773,7.339-4.892
			c2.693-3.311,6.038-7.438,12.7-7.438c6.688,0.254,10.004,4.399,12.658,7.73c2.652,3.292,4.672,5.122,7.695,4.983
			c3.053,0,4.538-1.673,7.033-4.791c2.681-3.356,6.026-7.538,12.673-7.538c6.727,0.254,9.938,4.426,12.514,7.777
			c2.495,3.245,3.941,4.937,7.139,4.937V4067.652z"/>
	</g>
	<g>
		<rect x="-14510.9" y="4754.038" style="fill:#020000;" width="7.696" height="39.676"/>
	</g>
	<g>
		<rect x="-14471.225" y="4754.038" style="fill:#020000;" width="7.699" height="39.676"/>
	</g>
	<g>
		<rect x="-14431.56" y="4754.038" style="fill:#020000;" width="7.71" height="39.676"/>
	</g>
	<g>
		<rect x="-14391.884" y="4754.038" style="fill:#020000;" width="7.71" height="39.676"/>
	</g>
	<g>
		<rect x="-14352.222" y="4754.038" style="fill:#020000;" width="7.724" height="39.676"/>
	</g>
	<g>
		<rect x="-14312.147" y="4754.038" style="fill:#020000;" width="7.695" height="39.676"/>
	</g>
	<g>
		<rect x="-14272.482" y="4754.038" style="fill:#020000;" width="7.711" height="39.676"/>
	</g>
	<g>
		<path style="fill:#020000;" d="M-13480.668,5043.01l1.299-11.647c0.212-2.065-0.024-3.505-0.716-4.292
			c-1.593-1.768-6.461-1.991-10.537-1.991c-1.855,0-3.875,0.051-6.009,0.112c-6.145,0.345-11.824,1.167-17.332,1.956
			c-13.508,1.946-26.843,2.933-40.341-0.923c-18.14-4.85-33.187-17.846-40.218-34.754c-6.528-15.654-5.413-32.47,3.104-47.342
			c12.446-21.313,37.738-34.027,67.676-34.027c18.814,0,36.757,5.109,50.516,14.393c14.771,10.123,23.74,23.787,25.996,39.516
			c3.027,21.238-5.971,45.416-26.021,69.935L-13480.668,5043.01z M-13490.622,5018.145c7.114,0,12.501,0.73,15.686,4.296
			c0.345,0.386,0.663,0.784,0.928,1.211c15.554-20.88,22.428-41.049,19.904-58.658c-1.989-13.963-9.738-25.658-23.02-34.768
			c-12.408-8.381-29.419-13.189-46.617-13.189c-27.442,0-50.506,11.425-61.678,30.559c-7.406,12.944-8.387,27.589-2.709,41.217
			c6.21,14.926,19.548,26.42,35.67,30.73c12.605,3.605,24.589,2.61,37.499,0.736c5.653-0.809,11.493-1.645,18.035-2.015
			C-13494.628,5018.198-13492.545,5018.145-13490.622,5018.145z"/>
	</g>
</g>
</svg>
